<?xml version="1.0" encoding="UTF-8"?>
<svg id="Layer_1" data-name="Layer 1" xmlns="http://www.w3.org/2000/svg" viewBox="0 0 102 93.19">
  <defs>
    <style>
      .cls-1 {
        fill: #bfbfbf;
      }

      .cls-2 {
        fill: #dbdddd;
      }
    </style>
  </defs>
  <path class="cls-2" d="M3.48,28.67c1.89,4.35,6.56,8.26,13.12,11.31,16.27,7.56,39.77,8.29,57.19,3.98,8.2-2.03,20.55-6.66,24.49-14.86,1.06-2.21,1.17-4.08,0-6.29-2.36-4.44-7.66-8.37-14.89-11.34-8.64-3.55-20-5.7-32.41-5.7-10.89,0-22.71,1.62-32.82,5.88-5.16,2.17-11.77,5.92-14.53,11.29-1.05,2.03-1.11,3.53-.15,5.74h0Z"/>
  <path class="cls-1" d="M65.77,10.78c-3.56,.43-7.05,1.27-10.06,2.45-2.71,1.06-6.04,2.79-7.84,5.17-1,1.33-1.43,2.72-1.34,4.05,.12,1.82,1.2,3.34,2.62,4.41,2.04,1.54,4.93,2.37,7.93,2.65,3.55,.33,7.23-.11,9.85-1.03,2.46-.86,4.71-2.65,6.33-4.89,1.58-2.18,2.57-4.79,2.58-7.4,.02-5.58-5.85-5.91-10.06-5.41h0Z"/>
  <path d="M51,1.32c13.56,0,25.85,2.56,34.75,6.7,8.29,3.85,13.67,9.09,14.47,14.94,.24,1.72,.11,5.1,.1,6.93,0,5.28,0,16.01-.02,25.18,0,4.43-.01,8.09-.02,9.78,0,2.27,.06,5.58-.54,7.42-1.83,5.63-7.96,10.58-16.76,14.1-8.6,3.44-19.78,5.51-32,5.51-13.29,0-25.35-2.46-34.21-6.45-8.04-3.63-13.46-8.54-14.8-14.05-.4-1.67-.32-3.1-.32-4.79V29.2c0-1.74-.16-4.7,.15-6.56,.95-5.72,6.29-10.84,14.43-14.63C25.15,3.87,37.44,1.31,51,1.31h0Zm24.46,80.3c.12-.03,.24,.04,.28,.16,.03,.12-.04,.24-.16,.28-2.35,.65-4.74,1.19-7.14,1.63-.12,.02-.24-.06-.26-.18s.06-.24,.18-.26c2.39-.44,4.76-.97,7.1-1.63h0ZM16.5,15.76c-.27,.13-.46-.28-.19-.41,4.39-2.08,9.13-3.56,13.86-4.62,.29-.06,.39,.38,.1,.44-4.7,1.05-9.41,2.52-13.76,4.59h0ZM91.6,31.97c.21-.21,.53,.1,.32,.31-4.45,4.63-11.82,7.43-17.94,8.94-.29,.07-.39-.37-.11-.44,6.03-1.49,13.34-4.25,17.73-8.81h0Zm-25.78-13.93c4.01,1.98,4.61,5.63,.61,8.02-2.08,1.24-4.76,1.77-7.17,1.82-3.27,.07-10.25-1.15-10.5-5.38-.1-1.8,1.27-3.19,2.71-4.05,1.64-.98,3.92-1.65,6.5-1.79,2.59-.15,5.51,.23,7.86,1.38h0Zm-.4,.81c-2.21-1.09-4.97-1.43-7.41-1.29-2.43,.14-4.56,.76-6.08,1.67-1.13,.67-2.36,1.79-2.27,3.23,.21,3.59,6.89,4.59,9.58,4.53,2.24-.05,4.78-.53,6.73-1.69,3.39-2.02,2.82-4.78-.54-6.44h0Zm5.79-4.9c.78,.44,.85,1.22,0,1.63-.76,.37-1.96,.29-2.68-.13-.78-.44-.85-1.22,0-1.63,.76-.37,1.96-.29,2.68,.13Zm-.22,.39c-.6-.34-1.64-.42-2.27-.11-.51,.25-.42,.57,.04,.83,.6,.34,1.64,.42,2.27,.11,.51-.25,.42-.57-.04-.83Zm-5.21-3.56c-3.56,.43-7.05,1.27-10.06,2.45-2.71,1.06-6.04,2.79-7.84,5.17-1,1.33-1.43,2.72-1.34,4.05,.12,1.82,1.2,3.34,2.62,4.41,2.04,1.54,4.93,2.37,7.93,2.65,3.55,.33,7.23-.11,9.85-1.03,2.46-.86,4.71-2.65,6.33-4.89,1.58-2.18,2.57-4.79,2.58-7.4,.02-5.58-5.85-5.91-10.06-5.41h0Zm-10.39,1.61c3.09-1.21,6.65-2.07,10.29-2.5,4.82-.58,11.09,.08,11.07,6.31-.01,2.8-1.06,5.6-2.75,7.92-1.73,2.39-4.13,4.29-6.77,5.21-2.73,.96-6.55,1.41-10.23,1.07-3.16-.29-6.21-1.17-8.39-2.82-1.63-1.23-2.83-2.98-2.97-5.07-.1-1.54,.38-3.14,1.52-4.65,1.91-2.52,5.35-4.34,8.23-5.47h0Zm16.67,5.08c-1.44,.59-3.4,.37-4.75-.34-2.25-1.18-2.31-3.69-.08-4.87,1.39-.74,3.45-.69,4.88-.05,2.57,1.16,2.42,4.25-.04,5.25h0Zm-.33-4.43c-1.17-.53-2.94-.59-4.09,.02-1.6,.85-1.52,2.45,.08,3.28,1.12,.59,2.81,.79,4,.3,1.74-.71,1.85-2.78,0-3.6h0Zm27.02,58.89c-.81,1.47-1.93,2.89-3.31,4.23-4.41,4.29-10.78,7.17-16.59,9.04-8.86,2.84-18.56,4.02-27.84,4.02-13.29,0-25.35-2.46-34.21-6.45-6.84-3.08-11.78-7.09-13.93-11.62,1.26,5.23,6.5,9.94,14.3,13.46,8.74,3.94,20.68,6.37,33.84,6.37,12.1,0,23.17-2.05,31.67-5.45,8.55-3.41,14.49-8.17,16.24-13.54,.27-.81,.2-.72-.16-.07h0Zm.69-39.24c-2.16,5.26-8.1,9.88-16.43,13.21-19.05,7.61-47.98,7.41-66.68-1.02-6.91-3.11-11.83-7.17-13.74-11.73l.02,33.57c.09,1.39,.46,2.74,1.08,4.06,2.05,4.32,6.84,8.18,13.49,11.18,8.74,3.94,20.68,6.37,33.84,6.37,9.19,0,18.8-1.17,27.57-3.98,5.66-1.81,11.94-4.65,16.24-8.83,1.99-1.93,3.39-4.01,4.09-6.18,.51-1.55,.49-2.89,.5-4.49,0-1.68,.01-5.35,.02-9.77,0-6.62,.01-16.21,.01-22.39h0Zm-.33-2.99c-4.1,8.48-16.56,13.21-25.07,15.32-17.63,4.36-41.33,3.62-57.78-4.04-6.86-3.19-11.72-7.32-13.66-11.97,.08,5.86,5.49,11.17,14.09,15.05,18.47,8.33,47.16,8.52,65.98,1,8.55-3.41,14.49-8.17,16.24-13.54,.22-.67,.35-1.21,.43-1.76,.16-1.1,.06-.67-.23-.06h0ZM3.5,28.85c1.89,4.35,6.56,8.26,13.12,11.31,16.27,7.56,39.77,8.29,57.19,3.98,8.2-2.03,20.55-6.66,24.49-14.86,1.06-2.21,1.17-4.08,0-6.29-2.36-4.44-7.66-8.37-14.89-11.34-8.64-3.55-20-5.7-32.41-5.7-10.89,0-22.71,1.62-32.82,5.88-5.16,2.17-11.77,5.92-14.53,11.29-1.05,2.03-1.11,3.53-.15,5.74h0Zm-.84-5.77c2.75-5.73,9.47-9.68,15.09-12.05,10.24-4.32,22.21-5.98,33.25-5.98,12.52,0,24,2.18,32.75,5.77,7.66,3.15,13.23,7.39,15.58,12.21-.79-5.5-5.97-10.48-13.95-14.19-8.79-4.09-20.94-6.61-34.38-6.61s-25.59,2.53-34.38,6.61C8.62,12.56,3.43,17.56,2.67,23.08h0Z"/>
  <path class="cls-2" d="M99.43,32.68c-2.16,5.26-8.1,9.88-16.43,13.21-19.05,7.61-47.98,7.41-66.68-1.02-6.91-3.11-11.83-7.17-13.74-11.73l.02,33.57c.09,1.39,.46,2.74,1.08,4.06,2.05,4.32,6.84,8.18,13.49,11.18,8.74,3.94,20.68,6.37,33.84,6.37,9.19,0,18.8-1.17,27.57-3.98,5.66-1.81,11.94-4.65,16.24-8.83,1.99-1.93,3.39-4.01,4.09-6.18,.51-1.55,.49-2.89,.5-4.49,0-1.68,.01-5.35,.02-9.77,0-6.62,.01-16.21,.01-22.39h0Z"/>
  <path class="cls-1" d="M99.06,29.7c-4.1,8.48-16.56,13.21-25.07,15.32-17.63,4.36-41.33,3.62-57.78-4.04-6.86-3.19-11.72-7.32-13.66-11.97,.08,5.86,5.49,11.17,14.09,15.05,18.47,8.33,47.16,8.52,65.98,1,8.55-3.41,14.49-8.17,16.24-13.54,.22-.67,.35-1.21,.43-1.76,.16-1.1,.06-.67-.23-.06h0Z"/>
  <path class="cls-1" d="M2.63,23.05c2.75-5.73,9.47-9.68,15.09-12.05,10.24-4.32,22.21-5.98,33.25-5.98,12.52,0,24,2.18,32.75,5.77,7.66,3.15,13.23,7.39,15.58,12.21-.79-5.5-5.97-10.48-13.95-14.19-8.79-4.09-20.94-6.61-34.38-6.61s-25.59,2.53-34.38,6.61C8.58,12.52,3.39,17.52,2.63,23.05h0Z"/>
  <path class="cls-1" d="M98.74,71.93c-.81,1.47-1.93,2.89-3.31,4.23-4.41,4.29-10.78,7.17-16.59,9.04-8.86,2.84-18.56,4.02-27.84,4.02-13.29,0-25.35-2.46-34.21-6.45-6.84-3.08-11.78-7.09-13.93-11.62,1.26,5.23,6.5,9.94,14.3,13.46,8.74,3.94,20.68,6.37,33.84,6.37,12.1,0,23.17-2.05,31.67-5.45,8.55-3.41,14.49-8.17,16.24-13.54,.27-.81,.2-.72-.16-.07h0Z"/>
</svg>