<?xml version="1.0" encoding="UTF-8"?>
<svg id="Layer_1" data-name="Layer 1" xmlns="http://www.w3.org/2000/svg" viewBox="0 0 76.16 93.93">
  <defs>
    <style>
      .cls-1 {
        fill: #f7ddad;
      }

      .cls-2 {
        fill: #f66;
      }

      .cls-3 {
        fill: #63432e;
      }

      .cls-4 {
        fill: #37af68;
      }
    </style>
  </defs>
  <path class="cls-3" d="M39.01,18.06V1.32c0-.33,.27-.59,.59-.59h2.29c.35,0,.63,.3,.59,.65l-1.79,17.71-1.29-.47c-.23-.09-.39-.31-.39-.56Z"/>
  <path class="cls-1" d="M57.56,54.38c.99,6.1,3.4,11.88,7.05,16.86,.94,1.27,1.96,2.47,3.05,3.61,.19,.22,.41,.41,.62,.62h0c-6.46,1.63-12.5,4.63-17.69,8.81-6.76-2.7-14.57-2.83-23.86-.38-2.78-4.14-9.05-5.63-15.3-6.51,.64-.67,1.26-1.37,1.81-2.07,1.54-1.88,2.9-3.9,4.06-6.03,8.91-16.93,3.72-38.45-11.14-48.86,10.74-1.38,17.25,.4,20.83,5.66l.57,.84,.95-.37c5.9-2.29,12.73-1.78,20.57-1.19,1.59,.13,3.18,.25,4.77,.35h.68l.41-.56c2.96-3.88,8.99-6.25,16.23-6.55-5.23,4.22-9.25,9.75-11.64,16.03-2.39,6.28-3.07,13.09-1.97,19.72h0Z"/>
  <path class="cls-3" d="M35.89,49.27c-1.15,0-2.07,2.98-2.07,4.12,.09,1.08,1,1.9,2.08,1.9s1.98-.83,2.08-1.9c0-1.15-.94-4.12-2.08-4.12h0Z"/>
  <path class="cls-3" d="M41.33,49.27c-1.15,0-2.08,2.98-2.08,4.12s.93,2.08,2.08,2.08,2.08-.93,2.08-2.08-.92-4.12-2.08-4.12Z"/>
  <path class="cls-2" d="M75.92,16.55c-4.24-3.55-9.71-5.26-15.21-4.77-3.36,.22-6.68,.85-9.88,1.89-1.89,.59-3.85,1.31-5.81,2.13-1.03,.45-2.08,.91-3.18,1.38-.34,.16-.68,.34-1,.54-.51,.29-1.59,.87-1.83,.75-16.9-8.05-29.91-7.95-37.64,.37v.08c-.07,.09-.13,.19-.17,.3,0,.05,0,.11,0,.16-.02,.15-.02,.3,0,.45v.1c.03,.18,.1,.35,.21,.49,.1,.13,.22,.23,.35,.32,15.91,8.83,21.99,30.48,13.12,47.3-1.06,2.01-2.31,3.92-3.74,5.7-.7,.88-1.44,1.71-2.23,2.51-.38,.4-.78,.78-1.19,1.16h0s-.07,.09-.1,.14c-.06,.06-.11,.13-.16,.21-.04,.09-.06,.18-.08,.27v.16h0c-.02,.12-.02,.24,0,.35,0,.05,0,.1,0,.14,.03,.09,.07,.18,.13,.25,0,0,0,.11,.1,.18,.57,.68,1.16,1.34,1.77,1.99,3.63,4.05,7.94,7.43,12.73,10.01,2.19,1.25,4.63,1.95,7.14,2.07,1.27,.01,2.52-.27,3.66-.81,.76-.39,1.49-.85,2.16-1.38,.67-.56,1.41-1.02,2.21-1.37,1.26-.45,2.63-.45,3.88,0,.65,.34,1.27,.73,1.85,1.18,.76,.58,1.57,1.08,2.43,1.49,1.65,.76,3.47,1.06,5.28,.88,5.62-.64,10.64-5.22,13.98-8.26h0c2.44-2.23,4.69-4.67,6.71-7.29,.38-.44,.56-1.01,.52-1.59-.1-.51-.41-.96-.86-1.23-.1-.07-.19-.14-.27-.22-.52-.49-1.05-1-1.59-1.59h0c-1.02-1-1.98-2.07-2.86-3.2-3.42-4.65-5.69-10.05-6.6-15.75-1.17-6.82-.29-13.83,2.53-20.14,2.82-6.32,7.44-11.66,13.29-15.35l.22-.24,.13-.16h0c.07-.12,.12-.26,.14-.4v-.11c.09-.19,.12-.41,.1-.62h0s0-.07,0-.11c-.06-.13-.15-.24-.24-.35Zm-16.38,18.12c-2.39,6.28-3.07,13.09-1.97,19.72h0c.99,6.1,3.4,11.88,7.05,16.86,.94,1.27,1.96,2.47,3.05,3.61,.19,.22,.41,.41,.62,.62h0c-6.46,1.63-12.5,4.63-17.69,8.81-6.76-2.7-14.57-2.83-23.86-.38-2.78-4.14-9.05-5.63-15.3-6.51,.64-.67,1.26-1.37,1.81-2.07,1.54-1.88,2.9-3.9,4.06-6.03,8.91-16.93,3.72-38.45-11.14-48.86,10.74-1.38,17.25,.4,20.83,5.66l.57,.84,.95-.37c5.9-2.29,12.73-1.78,20.57-1.19,1.59,.13,3.18,.25,4.77,.35h.68l.41-.56c2.96-3.88,8.99-6.25,16.23-6.55-5.23,4.22-9.25,9.75-11.64,16.03Z"/>
  <path class="cls-4" d="M50.7,7.09c-.02-.13-.11-.24-.23-.3-.12-.05-.26-.04-.37,.03-.56,.39-1.35,.57-3.07,.96l-1.73,.4c-4.51,1.09-4.5,5.47-4.5,5.53-.1,1.26-.06,1.98,.04,2.39-.07,.17-.02,.37,.15,.48,.06,.03,.12,.04,.18,.05,.02,0,.03,0,.04,0,0,0,0,0,0,0,.12,0,.23-.07,.3-.17,.51-.83,1.43-1.04,2.83-1.36,1.2-.25,2.38-.6,3.52-1.04,3.53-1.43,2.87-6.73,2.83-6.96Z"/>
</svg>