<?xml version="1.0" encoding="UTF-8"?>
<svg id="Layer_1" data-name="Layer 1" xmlns="http://www.w3.org/2000/svg" viewBox="0 0 99 64.14">
  <defs>
    <style>
      .cls-1 {
        fill: #f3e300;
      }
    </style>
  </defs>
  <path d="M98.92,60.76c-1.06-4.86-12.17-12.03-12.29-12.09-3.34-1.95-6.8-2.44-10.14-2.93-2.4-.35-4.65-.66-6.9-1.48-1.41-.51-2.6-1.11-3.61-1.78,1.68,.21,3.67,.39,5.74,.39,3.56,0,7.25-.53,9.57-2.32,9.96-7.62,10.39-10.22,9.65-11.62-.72-1.41-3.07-2.54-14.73,1.13-8.69,2.73-11.86-.92-15.88-5.53-.94-1.07-1.89-2.19-2.97-3.24l-.08,.08c-.66-1.82-1.33-3.65-1.54-5.04-.08-.66-.21-1.74-.2-2.05,.02-.8-.12-2.5-.18-3.26-.08-.96-.14-1.97-.2-2.97-.16-2.32-.29-4.53-.51-6.09-.02-.27-.2-.74-.21-.74-.12-.27-.31-.51-.55-.68-.29-.21-.72-.43-1.48-.49-1.02-.06-1.84-.06-3.18,.33-1.93,.57-3.42,1.66-3.89,2.72-.8,1.37-.94,3.61-1.09,5.94-.14,2.05-.27,4.18-.86,5.27-.64,1.21-1.56,2.17-2.54,3.18-.88,.92-1.78,1.86-2.56,3.03-.27,.41-.51,.82-.74,1.23-2.42,.9-4.32,2.5-6.15,4.06-1.31,1.11-2.54,2.17-3.91,2.95-2.7,1.52-7.89,3.4-11.02,2.79-4.77-.92-5.72-3.89-7.07-7.99l-.1-.29c-.76-2.34-1.82-5.57-3.87-5.06-.37,.1-.66,.35-.88,.76-1.17,2.29-.78,12.89,.02,14.94,3.11,7.81,10.35,9.57,16.84,9.69-3.01,1.11-6.21,1.91-9.26,2.66-1.95,.49-3.81,.94-5.57,1.47-2.46,.74-6.6,2.34-6.6,4.9,0,1.68,1.68,2.99,5.14,4.04,9.4,2.85,20.51,1.84,29.71-2.73,4.4-2.19,8.07-4.53,10.7-7.87,5.67,8.4,14.51,9.06,23.07,9.71,4.88,.37,9.92,.74,14.34,2.56,.43,.18,1.35,.7,2.42,1.31,4.22,2.4,8.2,4.51,10.78,4.51,1,0,1.8-.31,2.3-1.06,.37-.45,.68-1.21,.45-2.32h0Zm-22.15-28.97c11.54-3.63,12.52-2.05,12.54-2.03,0,.02,.74,1.74-9.14,9.3-3.2,2.44-10.59,2.21-16.45,1.19l-.04,.27c-3.07-3.32-3.79-7.93-4.69-13.61l-.04-.25c-.06-.39-.16-.82-.27-1.25,.1,.1,.18,.21,.27,.31,4.08,4.73,7.97,9.18,17.81,6.08h0Zm-51.2,9.85c-7.21,.49-15.9-.04-19.24-8.4-.72-1.8-.84-10.67-.25-12.99,.57,.74,1.25,2.83,1.48,3.59l.1,.29c1.43,4.34,2.66,8.09,8.48,9.22,3.79,.72,9.53-1.45,12.27-2.99,1.54-.86,2.89-2.03,4.2-3.14,1.23-1.06,2.42-2.07,3.73-2.85-.57,1.47-.98,2.91-1.37,4.34-.47,1.66-.96,3.4-1.68,5.08-1.58,3.69-4.38,6.17-7.72,7.99v-.14Zm8.46,10.65c-8.79,4.38-19.4,5.35-28.34,2.62-2.83-.86-3.83-1.76-3.83-2.27,0-.62,1.41-1.97,5.29-3.13,1.72-.51,3.56-.96,5.49-1.45,8.67-2.15,18.5-4.57,22.35-13.56,.78-1.8,1.27-3.59,1.76-5.31,.74-2.66,1.47-5.18,3.11-7.68,.68-1.04,1.52-1.91,2.34-2.77,1.02-1.06,2.07-2.15,2.83-3.57,.78-1.47,.94-3.79,1.09-6.04,.08-1.25,.18-2.77,.43-3.91,.72,.25,1.7,.31,2.75,.16,.12,2.15,.25,5.31,.14,6.29-.04,.41-.25,2.56-.29,2.85-.62,3.57-.61,7.23-.59,10.76,.04,4.3,.06,8.75-1.11,12.97-1.99,7.11-6.8,10.74-13.42,14.03h0Zm62.98,9.75c-.27,.39-1.47,.45-3.97-.55-2.25-.9-4.82-2.38-6.7-3.46-1.21-.68-2.09-1.19-2.64-1.43-4.69-1.93-9.88-2.3-14.9-2.7-8.69-.64-16.92-1.25-22.05-9.47,1.06-1.64,1.89-3.5,2.48-5.67,1.25-4.47,1.23-9.06,1.19-13.5-.02-3.46-.06-7.05,.55-10.45l.02-.08s.23-2.42,.29-2.85c.14-1.25-.04-5.02-.14-6.95,.72-.25,1.37-.59,1.91-.94,.1,1.27,.2,2.72,.29,4.14,.06,1.02,.14,2.03,.2,3.03,.04,.64,.18,2.34,.16,3.07,0,.55,.18,2.01,.21,2.32,.25,1.64,1,3.67,1.72,5.65,.66,1.8,1.29,3.5,1.48,4.75l.04,.25c1.31,8.24,2.44,15.37,11.8,18.79,2.42,.88,4.88,1.23,7.27,1.58,3.32,.49,6.45,.94,9.47,2.7,2.13,1.23,10.67,7.54,11.41,10.88,.12,.51,0,.74-.1,.88h0Z"/>
  <path class="cls-1" d="M97.04,62.03c-.27,.39-1.47,.45-3.97-.55-2.25-.9-4.82-2.38-6.7-3.46-1.21-.68-2.09-1.19-2.64-1.43-4.69-1.93-9.88-2.3-14.9-2.7-8.69-.64-16.92-1.25-22.05-9.47,1.06-1.64,1.89-3.5,2.48-5.67,1.25-4.47,1.23-9.06,1.19-13.5-.02-3.46-.06-7.05,.55-10.45l.02-.08s.23-2.42,.29-2.85c.14-1.25-.04-5.02-.14-6.95,.72-.25,1.37-.59,1.91-.94,.1,1.27,.2,2.72,.29,4.14,.06,1.02,.14,2.03,.2,3.03,.04,.64,.18,2.34,.16,3.07,0,.55,.18,2.01,.21,2.32,.25,1.64,1,3.67,1.72,5.65,.66,1.8,1.29,3.5,1.48,4.75l.04,.25c1.31,8.24,2.44,15.37,11.8,18.79,2.42,.88,4.88,1.23,7.27,1.58,3.32,.49,6.45,.94,9.47,2.7,2.13,1.23,10.67,7.54,11.41,10.88,.12,.51,0,.74-.1,.88h0Z"/>
  <path class="cls-1" d="M76.77,31.75c11.54-3.63,12.52-2.05,12.54-2.03,0,.02,.74,1.74-9.14,9.3-3.2,2.44-10.59,2.21-16.45,1.19l-.04,.27c-3.07-3.32-3.79-7.93-4.69-13.61l-.04-.25c-.06-.39-.16-.82-.27-1.25,.1,.1,.18,.21,.27,.31,4.08,4.73,7.97,9.18,17.81,6.08h0Z"/>
  <path class="cls-1" d="M25.57,41.45c-7.21,.49-15.9-.04-19.24-8.4-.72-1.8-.84-10.67-.25-12.99,.57,.74,1.25,2.83,1.48,3.59l.1,.29c1.43,4.34,2.66,8.09,8.48,9.22,3.79,.72,9.53-1.45,12.27-2.99,1.54-.86,2.89-2.03,4.2-3.14,1.23-1.06,2.42-2.07,3.73-2.85-.57,1.47-.98,2.91-1.37,4.34-.47,1.66-.96,3.4-1.68,5.08-1.58,3.69-4.38,6.17-7.72,7.99v-.14Z"/>
  <path class="cls-1" d="M34.03,52.28c-8.79,4.38-19.4,5.35-28.34,2.62-2.83-.86-3.83-1.76-3.83-2.27,0-.62,1.41-1.97,5.29-3.13,1.72-.51,3.56-.96,5.49-1.45,8.67-2.15,18.5-4.57,22.35-13.56,.78-1.8,1.27-3.59,1.76-5.31,.74-2.66,1.47-5.18,3.11-7.68,.68-1.04,1.52-1.91,2.34-2.77,1.02-1.06,2.07-2.15,2.83-3.57,.78-1.47,.94-3.79,1.09-6.04,.08-1.25,.18-2.77,.43-3.91,.72,.25,1.7,.31,2.75,.16,.12,2.15,.25,5.31,.14,6.29-.04,.41-.25,2.56-.29,2.85-.62,3.57-.61,7.23-.59,10.76,.04,4.3,.06,8.75-1.11,12.97-1.99,7.11-6.8,10.74-13.42,14.03h0Z"/>
</svg>