<?xml version="1.0" encoding="UTF-8"?>
<svg id="Layer_1" data-name="Layer 1" xmlns="http://www.w3.org/2000/svg" xmlns:xlink="http://www.w3.org/1999/xlink" viewBox="0 0 48.92 70.68">
  <defs>
    <style>
      .cls-1 {
        fill: none;
      }

      .cls-2 {
        clip-path: url(#clippath);
      }

      .cls-3 {
        fill: #ff6046;
      }

      .cls-4 {
        fill: #39332e;
      }
    </style>
    <clipPath id="clippath">
      <path class="cls-1" d="M.82,1.9c-.49,0-.87,.42-.82,.91l6.4,62.71c.3,2.89,2.14,5.16,3.78,5.16h28.33c1.63,0,3.48-2.27,3.78-5.16L48.68,2.81c.05-.49-.33-.91-.82-.91H.82Z"/>
    </clipPath>
  </defs>
  <g>
    <path class="cls-4" d="M1.21,1.9c-.69,0-1.24,.6-1.16,1.29l6.36,62.33c.3,2.89,2.14,5.16,3.78,5.16h28.33c1.63,0,3.48-2.27,3.78-5.16L48.65,3.19c.07-.69-.47-1.29-1.16-1.29H1.21Z"/>
    <g class="cls-2">
      <path class="cls-3" d="M48.92,10.76c0-.27-.22-.49-.49-.49H.72c-.27,0-.49,.22-.49,.49H.24c0,.27,.22,.49,.49,.49H13.48c.19,0,.37,.11,.44,.28,.35,.81,1.15,1.38,2.09,1.38h17.15c.94,0,1.74-.57,2.09-1.38,.08-.17,.25-.28,.44-.28h12.75c.27,0,.49-.22,.49-.49h0Z"/>
    </g>
  </g>
  <path class="cls-3" d="M3.9,0C2.39,0,.67,.68,.4,1.56l-.4,1.33H48.69l-.43-1.33c-.27-.88-1.96-1.56-3.47-1.56H3.9Z"/>
</svg>