<?xml version="1.0" encoding="UTF-8"?>
<svg id="Layer_1" data-name="Layer 1" xmlns="http://www.w3.org/2000/svg" xmlns:xlink="http://www.w3.org/1999/xlink" viewBox="0 0 137.01 197.94">
  <defs>
    <style>
      .cls-1 {
        fill: none;
      }

      .cls-2 {
        clip-path: url(#clippath);
      }

      .cls-3 {
        fill: #f7f7f7;
      }

      .cls-4 {
        fill: #84e0fb;
      }

      .cls-5 {
        fill: #39332e;
      }
    </style>
    <clipPath id="clippath">
      <path class="cls-1" d="M2.31,5.33c-1.37,0-2.43,1.18-2.3,2.54L17.93,183.49c.83,8.1,6,14.46,10.58,14.46H107.84c4.57,0,9.76-6.36,10.58-14.46L136.34,7.87c.14-1.36-.93-2.54-2.3-2.54H2.31Z"/>
    </clipPath>
  </defs>
  <g>
    <g>
      <path class="cls-5" d="M3.38,5.33c-1.94,0-3.46,1.68-3.26,3.61L17.93,183.49c.83,8.1,6,14.46,10.58,14.46H107.84c4.57,0,9.76-6.36,10.58-14.46L136.23,8.94c.2-1.93-1.32-3.61-3.26-3.61H3.38Z"/>
      <g class="cls-2">
        <path class="cls-4" d="M137.01,30.13c0-.76-.61-1.37-1.37-1.37H2.03c-.76,0-1.37,.61-1.37,1.37H.66c0,.76,.61,1.37,1.37,1.37H37.75c.53,0,1.03,.3,1.24,.79,.97,2.26,3.22,3.85,5.84,3.85h48.02c2.62,0,4.87-1.59,5.84-3.85,.21-.49,.71-.79,1.24-.79h35.72c.76,0,1.37-.61,1.37-1.37h0Z"/>
      </g>
    </g>
    <path class="cls-4" d="M10.91,0C6.68,0,1.89,1.9,1.12,4.37l-1.12,3.72H136.35l-1.2-3.72c-.76-2.46-5.48-4.37-9.72-4.37H10.91Z"/>
  </g>
  <g>
    <g>
      <path class="cls-3" d="M74.2,87.26l2.14,7.42c.05,.19,.05,.38,0,.55-.06,.17-.16,.33-.31,.45-.1,.08-.21,.14-.33,.17l-5.38,1.56c-.19,.05-.38,.05-.55,0-.17-.06-.33-.16-.45-.3-.08-.1-.14-.21-.17-.33l-2.16-7.42v-.02c-.58-1.99-.71-4.08-.39-6.12,.29-1.84,.21-3.73-.25-5.54l-.53-2.08s-.03,0-.04,0c-.05-.02-.1-.05-.14-.1-.02-.03-.04-.07-.06-.11-.02-.07-.03-.14-.02-.22,0-.07,.03-.14,.06-.21h0s.02-.06,.03-.09c0-.03,0-.06,0-.09v-.02c-.15-.03-.27-.13-.31-.28-.08-.26,.07-.54,.34-.61l1.37-.4c.26-.08,.54,.08,.61,.34,.04,.15,0,.3-.11,.4v.02c.02,.06,.06,.11,.12,.15h0c.06,.04,.12,.09,.16,.15,.04,.06,.08,.12,.1,.19,.02,.08,.01,.16-.02,.23-.02,.03-.04,.05-.06,.08l.67,2.04c.58,1.77,1.52,3.41,2.75,4.81,1.37,1.55,2.38,3.39,2.95,5.38v.02s0,0,0,0Zm-.32,.09v-.02c-.57-1.94-1.55-3.73-2.89-5.25-1.26-1.43-2.22-3.11-2.82-4.93l-.66-2.02-1.38,.4,.52,2.06c.47,1.85,.56,3.78,.26,5.67-.32,2-.19,4.04,.37,5.98v.02s2.17,7.42,2.17,7.42c.04,.12,.11,.23,.2,.3,.09,.08,.2,.13,.32,.14,.08,0,.16,0,.24-.02l5.38-1.56c.12-.04,.23-.11,.3-.2,.08-.09,.13-.2,.14-.32,0-.08,0-.16-.02-.24l-2.14-7.42Zm-6.3-12.58s-.02-.04-.03-.05h0s-.04-.05-.07-.06h0c-.12-.07-.21-.19-.25-.32l-1.27,.37c.02,.06,.02,.13,.02,.2,0,.07-.03,.14-.06,.21h0s-.02,.06-.03,.09h0s0,.04,0,.06h0s0,0,0,0l1.69-.49Zm-.26-.83s0-.03,0-.05c-.02-.09-.11-.14-.2-.11l-1.37,.4s-.08,.04-.1,.08c-.02,.04-.03,.08-.01,.12,0,.03,.04,.05,.07,.04l1.57-.45s.03-.02,.04-.03h0Z"/>
      <path class="cls-3" d="M73.26,88.09c.08,.04,.11,.14,.07,.22l-.35,.63,.63,.35c.08,.04,.11,.14,.07,.22-.04,.08-.14,.11-.22,.07l-.63-.35-.35,.63c-.04,.08-.14,.11-.22,.07s-.11-.14-.07-.22l.35-.63-.63-.35c-.08-.04-.11-.14-.07-.22s.14-.11,.22-.07l.63,.35,.34-.63c.04-.08,.14-.11,.22-.07Z"/>
      <path class="cls-3" d="M71.44,88.61c.08,.04,.11,.14,.07,.22l-.35,.63,.63,.35c.08,.04,.11,.14,.07,.22-.04,.08-.14,.11-.22,.07l-.63-.35-.35,.63c-.04,.08-.14,.11-.22,.07s-.11-.14-.07-.22l.35-.63-.63-.35c-.08-.04-.11-.14-.07-.22s.14-.11,.22-.07l.63,.35,.34-.63c.04-.08,.14-.11,.22-.07Z"/>
      <path class="cls-3" d="M69.63,89.14c.08,.04,.11,.14,.07,.22l-.35,.63,.63,.35c.08,.04,.11,.14,.07,.22-.04,.08-.14,.11-.22,.07l-.63-.35-.35,.63c-.04,.08-.14,.11-.22,.07-.08-.04-.11-.14-.07-.22l.35-.63-.63-.35c-.08-.04-.11-.14-.07-.22s.14-.11,.22-.07l.63,.35,.35-.63c.04-.08,.14-.11,.22-.07Z"/>
    </g>
    <g>
      <path class="cls-3" d="M64.01,95.96c-.06,0-.14-.01-.19-.03-.02,0-.04-.02-.04-.02-.13-.12-.23-.16-.31-.19h-.02c-.28-.1-.56-.12-.82-.12-.19,0-.36,.01-.52,.04-.16,.04-.4,.17-.54,.24l-.04,.02c-.08,.04-.21,.05-.25,.06h-.03c-.05,0-.08,0-.14-.03-.04-.02-.13-.2-.22-.6l-.15,.03c.06,.29,.17,.64,.3,.71,.08,.04,.13,.04,.19,.04h.05s.19,0,.32-.07l.04-.02c.12-.06,.36-.19,.5-.23,.14-.03,.31-.04,.49-.04,.29,0,.53,.02,.77,.1h.02c.08,.04,.16,.07,.27,.17h.02s.05,.04,.08,.05c.07,.03,.16,.04,.24,.04s.16-.01,.23-.04l-.05-.14c-.05,.02-.11,.03-.18,.03h0Z"/>
      <path class="cls-3" d="M64.97,86.88c0-.09,.03-.18,.07-.31,.1-.3,.26-.8,.26-1.89,0-1.48-1.31-2.68-1.57-2.9v-.42h.28v-.23h-.11v-1.35c0-.2-.17-.37-.37-.37h-1.77c-.2,0-.37,.17-.37,.37v1.35h-.11s0,.23,0,.23h.28v.42c-.26,.22-1.57,1.42-1.57,2.9,0,1.09,.16,1.59,.26,1.89,.04,.13,.07,.23,.07,.31,0,.11-.05,.25-.11,.41-.1,.28-.23,.66-.23,1.2v5.88c0,.56,.22,2,.78,2.26,.51,.23,1.07,.06,1.29-.15,.14-.14,1.08-.11,1.2,0,.14,.14,.44,.27,.77,.27,.17,0,.35-.03,.52-.11,.55-.25,.78-1.7,.78-2.26v-5.88c0-.54-.13-.92-.23-1.2-.06-.17-.11-.3-.11-.41h0Zm-3.21-7.25h1.77c.08,0,.14,.06,.14,.14v.89h-2.06v-.89c0-.08,.06-.14,.14-.14h0Zm-.14,1.19h2.06v.31h-2.06v-.31Zm3.47,13.55c0,.69-.28,1.88-.65,2.05-.42,.19-.89,.04-1.03-.11-.2-.2-1.28-.24-1.52,0-.14,.14-.61,.3-1.03,.11-.37-.17-.64-1.36-.64-2.05v-5.88c0-.5,.12-.84,.22-1.12,.06-.18,.12-.34,.12-.49,0-.12-.04-.24-.09-.39-.1-.31-.25-.77-.25-1.82,0-1.5,1.51-2.74,1.53-2.76,.03-.02,.04-.05,.04-.09v-.47h1.73v.47s.02,.07,.04,.09c.02,.01,1.53,1.26,1.53,2.76,0,1.06-.15,1.52-.25,1.82-.05,.15-.09,.26-.09,.39,0,.15,.06,.31,.12,.49,.1,.28,.22,.62,.22,1.12v5.88h0Z"/>
      <path class="cls-3" d="M61.03,87.11h3.23v.15h-3.23v-.15Z"/>
    </g>
  </g>
  <g>
    <g>
      <path class="cls-3" d="M27.32,117.76l-3.89-7.1h-3.12v7.1h-3.22v-17.7h7.13c4.56,0,6.13,2.39,6.13,5.31,0,2.12-1.1,4.11-3.71,4.86l4.21,7.53h-3.54Zm-7-15.26v5.76h3.37c2.42,0,3.32-1.22,3.32-2.89s-.9-2.87-3.32-2.87h-3.37Z"/>
      <path class="cls-3" d="M42.98,112.28h-8.75c.02,2.09,1.35,3.44,3.32,3.44,1.42,0,2.47-.72,3.04-2.07l2.29,1.05c-.92,2.17-2.89,3.37-5.43,3.37-3.81,0-6.11-2.32-6.11-6.41s2.24-6.66,5.96-6.66,5.68,2.09,5.68,5.91v1.37Zm-2.94-1.97v-.2c0-2.04-1.02-3.12-2.79-3.12-1.89,0-2.97,1.25-3.02,3.32h5.81Z"/>
      <path class="cls-3" d="M44.12,111.53c0-4.06,2.34-6.53,6.13-6.53,3.09,0,5.11,1.65,5.48,4.49l-2.92,.47c-.2-1.69-1.17-2.62-2.64-2.62-1.84,0-2.99,1.55-2.99,4.11s1.12,4.24,3.04,4.24c1.5,0,2.42-.92,2.69-2.67l2.82,.57c-.45,2.77-2.54,4.46-5.51,4.46-3.71,0-6.11-2.57-6.11-6.53Z"/>
      <path class="cls-3" d="M56.58,122.62v-2.37c.45,.1,.75,.1,1.05,.1,1.47,0,2.24-.6,2.72-1.97l.25-.75-4.86-12.34h3.29l2.72,8.15c.2,.57,.3,1.05,.35,1.47h.05c.07-.37,.2-.82,.37-1.47l2.49-8.15h3.09l-4.66,13.16c-1.12,3.17-2.82,4.29-5.48,4.29-.37,0-.85-.05-1.37-.12Z"/>
      <path class="cls-3" d="M68.15,111.53c0-4.06,2.34-6.53,6.13-6.53,3.09,0,5.11,1.65,5.48,4.49l-2.92,.47c-.2-1.69-1.17-2.62-2.64-2.62-1.84,0-2.99,1.55-2.99,4.11s1.12,4.24,3.04,4.24c1.5,0,2.42-.92,2.69-2.67l2.82,.57c-.45,2.77-2.54,4.46-5.51,4.46-3.71,0-6.11-2.57-6.11-6.53Z"/>
      <path class="cls-3" d="M84.78,99.69v18.07h-2.99v-18.07h2.99Z"/>
      <path class="cls-3" d="M87.74,103.23v-3.12h3.24v3.12h-3.24Zm.12,14.53v-12.46h2.99v12.46h-2.99Z"/>
      <path class="cls-3" d="M93.95,117.76v-12.46h2.84v2.42c.85-1.82,2.22-2.72,4.14-2.72,2.72,0,4.14,1.69,4.14,5.04v7.73h-3.02v-7.43c0-1.97-.75-2.94-2.32-2.94-1.74,0-2.79,1.4-2.79,3.76v6.61h-2.99Z"/>
      <path class="cls-3" d="M116.46,106.2c.85,.75,1.32,1.77,1.32,2.99,0,2.47-1.94,4.26-5.14,4.26-.95,0-1.79-.17-2.49-.45-.37,.2-.62,.52-.62,.95,0,.67,.52,1.15,1.89,1.15h3.27c2.92,0,4.41,1.27,4.41,3.59,0,2.57-2.17,4.24-6.66,4.24s-5.86-1.45-5.86-3.22c0-1.1,.72-2.02,2.07-2.44-1.1-.45-1.57-1.27-1.57-2.24,0-1.27,.77-2.17,1.97-2.64-.97-.77-1.52-1.87-1.52-3.19,0-2.47,1.94-4.19,5.11-4.19,1.02,0,1.89,.17,2.64,.5,.4-1.35,1.47-2.29,3.27-2.29,.25,0,.45,.03,.7,.07v2.24c-.32-.07-.65-.12-1.02-.12-.82,0-1.4,.25-1.77,.8Zm-5.46,11.44c-.37,0-.72,0-1.02-.05-.62,.4-.9,.97-.9,1.57,0,1.32,1.42,1.82,3.56,1.82,2.84,0,3.74-.77,3.74-1.79s-.72-1.52-2.14-1.52l-3.24-.03Zm3.94-8.43c0-1.42-.9-2.39-2.29-2.39s-2.29,.97-2.29,2.37,.9,2.44,2.29,2.44,2.29-1.02,2.29-2.42Z"/>
    </g>
    <g>
      <path class="cls-3" d="M17.1,130.43v-11.14h2.12l2.95,8.57c.19,.55,.22,.64,.28,1.05h.03c.06-.41,.09-.5,.28-1.05l2.95-8.57h2.12v11.14h-1.36v-8.6c0-.46,.02-.83,.06-1.19h-.06c-.03,.22-.19,.89-.33,1.27l-2.95,8.52h-1.44l-2.95-8.52c-.14-.38-.3-1.05-.33-1.27h-.06c.05,.36,.06,.74,.06,1.19v8.6h-1.37Z"/>
      <path class="cls-3" d="M30.17,121.13v-1.68h1.52v1.68h-1.52Zm.09,9.31v-7.85h1.33v7.85h-1.33Z"/>
      <path class="cls-3" d="M32.7,130.43l2.84-4.05-2.64-3.8h1.57l1.43,2.21c.27,.42,.41,.67,.45,.82h.02c.06-.16,.2-.42,.44-.82l1.35-2.21h1.63l-2.59,3.89,2.79,3.95h-1.58l-1.62-2.42c-.25-.38-.41-.67-.44-.8h-.02c-.03,.11-.17,.38-.46,.8l-1.6,2.42h-1.58Z"/>
      <path class="cls-3" d="M47.05,126.9h-5.57c.02,1.54,.94,2.54,2.34,2.54,1,0,1.74-.53,2.09-1.49l1.1,.49c-.55,1.43-1.69,2.18-3.28,2.18-2.24,0-3.58-1.43-3.58-4.02s1.32-4.21,3.56-4.21c2.12,0,3.34,1.21,3.34,3.56v.94Zm-1.35-1.08v-.17c0-1.44-.74-2.2-2.02-2.2-1.38,0-2.17,.89-2.2,2.37h4.22Z"/>
      <path class="cls-3" d="M47.99,126.51c0-2.42,1.38-4.11,3.34-4.11,1.04,0,1.8,.42,2.31,1.35v-4.69h1.33v11.38h-1.26v-1.46c-.47,1.05-1.32,1.65-2.54,1.65-1.9,0-3.19-1.65-3.19-4.11Zm5.68,.19v-.36c0-1.71-.82-2.76-2.13-2.76s-2.13,1.08-2.13,2.93,.8,2.93,2.13,2.93,2.13-1.07,2.13-2.75Z"/>
    </g>
  </g>
</svg>