<?xml version="1.0" encoding="utf-8"?>
<!-- Generator: Adobe Illustrator 26.5.0, SVG Export Plug-In . SVG Version: 6.00 Build 0)  -->
<svg version="1.1" id="Layer_1" xmlns="http://www.w3.org/2000/svg" xmlns:xlink="http://www.w3.org/1999/xlink" x="0px" y="0px"
	 viewBox="0 0 100 100" style="enable-background:new 0 0 100 100;" xml:space="preserve">
<style type="text/css">
	.st0{fill:#0B035E;}
	.st1{fill:#63432E;}
	.st2{fill:#F7DDAD;}
	.st3{fill:#FF6666;}
	.st4{fill:#37AF68;}
	.st5{fill:#DBDDDD;}
	.st6{fill:#BFBFBF;}
	.st7{fill:#F3E300;}
	.st8{fill:#D1A586;}
	.st9{fill:#F7F7F7;}
	.st10{fill:#0E63E7;}
	.st11{fill:#01DBCA;}
	.st12{fill:#825A3C;}
	.st13{fill:#D6AF99;stroke:#825A3C;stroke-width:0.14;stroke-miterlimit:10;}
	.st14{fill:#D6AF99;}
</style>
<g>
	<polygon class="st14" points="4.37,12.48 22.1,12.48 29.73,28.02 10.75,28.02 	"/>
	<polygon class="st14" points="70.79,26.95 88.52,26.95 95.63,12.48 77.9,12.48 	"/>
	<rect x="67.92" y="28.6" class="st14" width="21.16" height="59.49"/>
	<g>
		<path class="st12" d="M89.21,89.72H69.02c-0.61,0-1.1-0.49-1.1-1.1s0.49-1.1,1.1-1.1H88.1l0-59.46c0-0.61,0.49-1.1,1.1-1.1
			s1.1,0.49,1.1,1.1v60.57C90.31,89.23,89.81,89.72,89.21,89.72L89.21,89.72z"/>
		<path class="st12" d="M69.02,89.72H10.79c-0.61,0-1.1-0.49-1.1-1.1l0-60.57c0-0.61,0.49-1.1,1.1-1.1h58.22
			c0.61,0,1.1,0.49,1.1,1.1v60.57C70.12,89.23,69.63,89.72,69.02,89.72L69.02,89.72z M11.9,87.52h56.02l0-58.36H11.9L11.9,87.52z"/>
		<path class="st12" d="M89.21,29.16H69.02c-0.38,0-0.73-0.2-0.94-0.52c-0.2-0.32-0.22-0.73-0.05-1.07l8.19-16.68
			c0.19-0.38,0.57-0.62,0.99-0.62l20.19,0c0.38,0,0.73,0.2,0.94,0.52s0.22,0.73,0.05,1.07l-8.19,16.68
			C90.01,28.92,89.63,29.16,89.21,29.16L89.21,29.16z M70.79,26.95h17.73l7.11-14.47H77.9L70.79,26.95z"/>
		<path class="st12" d="M30.98,29.16c-0.41,0-0.8-0.23-0.99-0.62L22.1,12.48H4.37l7.41,15.09c0.27,0.55,0.04,1.21-0.5,1.48
			c-0.55,0.27-1.21,0.04-1.48-0.5L1.61,11.87c-0.17-0.34-0.15-0.75,0.05-1.07c0.2-0.32,0.55-0.52,0.94-0.52h20.19
			c0.42,0,0.8,0.24,0.99,0.62l8.19,16.68c0.27,0.55,0.04,1.21-0.5,1.48C31.31,29.12,31.15,29.16,30.98,29.16L30.98,29.16z"/>
	</g>
	<rect x="11.9" y="29.16" class="st14" width="56.02" height="58.36"/>
</g>
</svg>
