<?xml version="1.0" encoding="UTF-8"?>
<svg id="Layer_1" data-name="Layer 1" xmlns="http://www.w3.org/2000/svg" viewBox="0 0 96.66 89.55">
  <defs>
    <style>
      .cls-1 {
        fill: #d1a586;
      }

      .cls-2 {
        fill: #0b035e;
      }
    </style>
  </defs>
  <path class="cls-1" d="M13.22,88.83l-2.54-2.54L68.69,28.29l3.67,3.67L13.22,88.83ZM74.65,29.77l-3.72-3.72L89.3,7.68l4.08,4.08-18.73,18.01Z"/>
  <polygon class="cls-2" points="72.4 32.01 68.68 28.3 87.05 9.93 91.13 14.01 72.4 32.01"/>
  <path class="cls-1" d="M5.82,81.87l-2.54-2.54L61.28,21.33l3.67,3.67L5.82,81.87ZM67.24,22.8l-3.72-3.72L81.89,.72l4.08,4.08-18.73,18.01Z"/>
  <polygon class="cls-2" points="64.99 25.05 61.27 21.33 79.64 2.97 83.72 7.04 64.99 25.05"/>
</svg>