<?xml version="1.0" encoding="UTF-8"?>
<svg id="Layer_1" data-name="Layer 1" xmlns="http://www.w3.org/2000/svg" viewBox="0 0 100 100">
  <defs>
    <style>
      .cls-1 {
        fill: #825a3c;
      }

      .cls-2 {
        fill: #d6af99;
      }

      .cls-3 {
        fill: #3c3c3b;
      }
    </style>
  </defs>
  <g>
    <polygon class="cls-2" points="4.37 12.48 22.1 12.48 29.73 28.02 10.75 28.02 4.37 12.48"/>
    <polygon class="cls-2" points="70.79 26.95 88.52 26.95 95.63 12.48 77.9 12.48 70.79 26.95"/>
    <rect class="cls-2" x="67.92" y="28.6" width="21.16" height="59.49"/>
    <g>
      <path class="cls-1" d="M89.21,89.72h-20.19c-.61,0-1.1-.49-1.1-1.1s.49-1.1,1.1-1.1h19.09V28.06c0-.61,.49-1.1,1.1-1.1s1.1,.49,1.1,1.1v60.57c0,.61-.49,1.1-1.1,1.1h0Z"/>
      <path class="cls-1" d="M69.02,89.72H10.79c-.61,0-1.1-.49-1.1-1.1V28.05c0-.61,.49-1.1,1.1-1.1h58.22c.61,0,1.1,.49,1.1,1.1v60.57c0,.61-.49,1.1-1.1,1.1h0Zm-57.12-2.2h56.02V29.16s-56.02,0-56.02,0v58.36Z"/>
      <path class="cls-1" d="M89.21,29.16h-20.19c-.38,0-.73-.2-.94-.52s-.22-.73-.05-1.07l8.19-16.68c.19-.38,.57-.62,.99-.62h20.19c.38,0,.73,.2,.94,.52s.22,.73,.05,1.07l-8.19,16.68c-.18,.38-.57,.62-.99,.62h0Zm-18.42-2.2h17.73l7.11-14.47h-17.73l-7.11,14.47Z"/>
      <path class="cls-1" d="M30.98,29.16c-.41,0-.8-.23-.99-.62l-7.89-16.06H4.37l7.41,15.09c.27,.55,.04,1.21-.5,1.48-.55,.27-1.21,.04-1.48-.5L1.61,11.87c-.17-.34-.15-.75,.05-1.07,.2-.32,.55-.52,.94-.52H22.79c.42,0,.8,.24,.99,.62l8.19,16.68c.27,.55,.04,1.21-.5,1.48-.16,.08-.32,.11-.49,.11h0Z"/>
    </g>
    <rect class="cls-2" x="11.9" y="29.16" width="56.02" height="58.36"/>
  </g>
  <path class="cls-3" d="M67.41,56.44c-.06-.64-.41-1.22-.93-1.57-1.1-.81-2.38-.81-3.66-.52-1.22,.29-2.44,.81-3.66,1.22-1.05,.35-2.03-.23-2.09-1.34-.06-.46,0-.87,.12-1.34,.12-.7-.12-1.16-.7-1.51-.52-.29-.99-.64-1.39-1.1-.81-.87-.46-1.98,.64-2.32,.64-.17,1.34-.29,1.92-.58,.93-.41,1.39-1.28,1.16-2.09-.52-1.86-2.9-2.56-4.36-1.28-.76,.7-1.45,1.45-2.21,2.03-.17,.17-.46,.23-.76,.23-.58,.06-1.16-.29-1.57-.76-.06-.06-.41-.52-.52-.7-.76-1.22-1.05-2.73,.58-4.3,1.16-1.16,2.15-2.44,2.67-4.01,.29-.87,.35-1.8-.93-2.38-.58-.29-1.22-.23-1.8,0-1.22,.58-1.86,1.68-2.27,2.9-.35,1.22-.52,2.5-.76,3.78-.23,1.05-1.22,1.63-2.21,1.16-.41-.17-.76-.46-1.1-.76-.52-.41-1.05-.46-1.63-.12-.52,.29-1.1,.52-1.63,.64-1.16,.23-1.98-.58-1.68-1.74,.17-.64,.41-1.28,.46-1.98,.12-1.05-.41-1.86-1.22-2.09-1.92-.46-3.66,1.22-3.25,3.14,.29,1.39-.58,2.79-1.98,3.02-.23,.06-.46,.06-.76,.06-1.45,.06-2.9-.46-3.43-2.67-.41-1.57-1.05-3.08-2.15-4.3-.64-.7-1.39-1.22-2.5-.41-.52,.35-.81,.93-.87,1.57-.12,1.34,.52,2.5,1.39,3.43,.87,.93,1.92,1.68,2.85,2.56,.81,.7,.81,1.92-.12,2.5-.35,.23-.76,.41-1.22,.58-.64,.23-.93,.64-.93,1.39,0,.58-.06,1.22-.23,1.74-.35,1.1-1.51,1.39-2.32,.64-.46-.46-.93-.99-1.45-1.39-.81-.64-1.8-.58-2.38,.06-1.34,1.39-.76,3.83,1.05,4.41,.99,.29,1.98,.52,2.9,.93,.23,.06,.41,.23,.52,.46,.35,.46,.41,1.05,.17,1.63l-.17,.52c-.12,.41-.35,.81-.58,1.1-.7,.93-1.86,1.45-3.6,.93-1.57-.46-3.2-.64-4.82-.29-.93,.17-1.74,.64-1.63,1.98,.06,.64,.41,1.22,.93,1.57,1.1,.81,2.38,.81,3.66,.52,1.22-.29,2.44-.81,3.66-1.22,1.05-.35,2.03,.23,2.09,1.34,.06,.46,0,.87-.12,1.34-.12,.7,.12,1.16,.7,1.51,.52,.29,.99,.64,1.39,1.1,.81,.87,.46,1.98-.64,2.32-.64,.17-1.34,.29-1.92,.58-.93,.41-1.39,1.28-1.16,2.09,.52,1.86,2.9,2.56,4.36,1.28,.76-.7,1.45-1.45,2.21-2.03,.23-.17,.52-.35,.87-.46,1.05,.17,1.98,.81,2.73,2.03,.76,1.22,1.05,2.73-.58,4.3-1.16,1.16-2.15,2.44-2.67,4.01-.29,.87-.35,1.8,.93,2.38,.58,.29,1.22,.23,1.8,0,1.22-.58,1.86-1.68,2.27-2.9,.35-1.22,.52-2.5,.76-3.78,.23-1.05,1.22-1.63,2.21-1.16,.41,.17,.76,.46,1.1,.76,.52,.41,1.05,.46,1.63,.12,.52-.29,1.1-.52,1.63-.64,1.16-.23,1.98,.58,1.68,1.74-.17,.64-.41,1.28-.46,1.98-.12,1.05,.41,1.86,1.22,2.09,1.92,.46,3.66-1.22,3.25-3.14-.23-.99-.52-1.98-.64-2.96,0-.23,0-.46,.12-.7,.23-.52,.76-.87,1.28-.99l.52-.12c.41-.06,.87-.12,1.28-.06,1.16,.17,2.21,.87,2.61,2.61,.41,1.57,1.05,3.08,2.15,4.3,.64,.7,1.39,1.22,2.5,.41,.52-.35,.81-.93,.87-1.57,.12-1.34-.52-2.5-1.39-3.43-.87-.93-1.92-1.68-2.85-2.56-.81-.7-.81-1.92,.12-2.5,.35-.23,.76-.41,1.22-.58,.64-.23,.93-.64,.93-1.39,0-.58,.06-1.22,.23-1.74,.35-1.1,1.51-1.39,2.32-.64,.46,.46,.93,.99,1.45,1.39,.81,.64,1.8,.58,2.38-.06,1.34-1.39,.76-3.83-1.05-4.41-.99-.29-1.98-.52-2.9-.93-.46-.17-.64-.7-.46-1.16,.06-.17,.17-.41,.29-.58,.7-1.28,1.86-2.27,4.07-1.63,1.57,.46,3.2,.64,4.82,.29,.93,0,1.74-.41,1.63-1.8h0Z"/>
</svg>