<?xml version="1.0" encoding="UTF-8"?>
<svg id="Layer_1" data-name="Layer 1" xmlns="http://www.w3.org/2000/svg" xmlns:xlink="http://www.w3.org/1999/xlink" viewBox="0 0 136.35 197.94">
  <defs>
    <style>
      .cls-1 {
        clip-rule: evenodd;
      }

      .cls-1, .cls-2, .cls-3 {
        fill: #f66;
      }

      .cls-4 {
        clip-path: url(#clippath);
      }

      .cls-3 {
        fill-rule: evenodd;
      }
    </style>
    <clipPath id="clippath">
      <path class="cls-1" d="M43.76,82.53c-.39,0-.75,.16-1.03,.43l-6.75,6.75h0c-.58,.58-.58,1.52,0,2.1l23.35,23.34-23.35,23.35c-.58,.58-.58,1.52,0,2.1l6.75,6.75h0c.58,.58,1.52,.58,2.1,0l23.34-23.35,23.35,23.35h0c.58,.58,1.52,.58,2.1,0l6.75-6.75h0c.58-.58,.58-1.52,0-2.1l-23.35-23.35,23.35-23.34c.58-.58,.58-1.52,0-2.1l-6.75-6.75h0c-.58-.58-1.52-.58-2.1,0l-23.35,23.35-23.34-23.35h0c-.28-.28-.67-.44-1.07-.43h0Z"/>
    </clipPath>
  </defs>
  <path class="cls-3" d="M43.76,82.53c-.39,0-.75,.16-1.03,.43l-6.75,6.75h0c-.58,.58-.58,1.52,0,2.1l23.35,23.34-23.35,23.35c-.58,.58-.58,1.52,0,2.1l6.75,6.75h0c.58,.58,1.52,.58,2.1,0l23.34-23.35,23.35,23.35h0c.58,.58,1.52,.58,2.1,0l6.75-6.75h0c.58-.58,.58-1.52,0-2.1l-23.35-23.35,23.35-23.34c.58-.58,.58-1.52,0-2.1l-6.75-6.75h0c-.58-.58-1.52-.58-2.1,0l-23.35,23.35-23.34-23.35h0c-.28-.28-.67-.44-1.07-.43h0Z"/>
  <g class="cls-4">
    <g>
      <polygon class="cls-2" points="2.42 31.5 17.93 183.49 2.42 31.5 2.42 31.5"/>
      <path class="cls-2" d="M99.92,31.5c-.53,0-1.03,.3-1.24,.79-.97,2.26-3.22,3.85-5.84,3.85H44.83c-2.62,0-4.87-1.59-5.84-3.85-.21-.49-.71-.79-1.24-.79H2.42l15.51,151.99c.83,8.1,6,14.46,10.58,14.46H107.84c4.57,0,9.76-6.36,10.58-14.46l15.51-151.99h-34Z"/>
      <rect class="cls-2" x="2.28" y="28.75" height="2.75"/>
    </g>
  </g>
</svg>