<?xml version="1.0" encoding="UTF-8"?>
<svg id="Layer_1" data-name="Layer 1" xmlns="http://www.w3.org/2000/svg" xmlns:xlink="http://www.w3.org/1999/xlink" viewBox="0 0 137.01 197.94">
  <defs>
    <style>
      .cls-1 {
        fill: none;
      }

      .cls-2 {
        clip-path: url(#clippath);
      }

      .cls-3 {
        fill: #f7f7f7;
      }

      .cls-4 {
        fill: #b9cc48;
      }

      .cls-5 {
        fill: #39332e;
      }
    </style>
    <clipPath id="clippath">
      <path class="cls-1" d="M2.31,5.33c-1.37,0-2.43,1.18-2.3,2.54L17.93,183.49c.83,8.1,6,14.46,10.58,14.46H107.84c4.57,0,9.76-6.36,10.58-14.46L136.34,7.87c.14-1.36-.93-2.54-2.3-2.54H2.31Z"/>
    </clipPath>
  </defs>
  <g>
    <g>
      <path class="cls-5" d="M3.38,5.33c-1.94,0-3.46,1.68-3.26,3.61L17.93,183.49c.83,8.1,6,14.46,10.58,14.46H107.84c4.57,0,9.76-6.36,10.58-14.46L136.23,8.94c.2-1.93-1.32-3.61-3.26-3.61H3.38Z"/>
      <g class="cls-2">
        <path class="cls-4" d="M137.01,30.13c0-.76-.61-1.37-1.37-1.37H2.03c-.76,0-1.37,.61-1.37,1.37H.66c0,.76,.61,1.37,1.37,1.37H37.75c.53,0,1.03,.3,1.24,.79,.97,2.26,3.22,3.85,5.84,3.85h48.02c2.62,0,4.87-1.59,5.84-3.85,.21-.49,.71-.79,1.24-.79h35.72c.76,0,1.37-.61,1.37-1.37h0Z"/>
      </g>
    </g>
    <path class="cls-4" d="M10.91,0C6.68,0,1.89,1.9,1.12,4.37l-1.12,3.72H136.35l-1.2-3.72c-.76-2.46-5.48-4.37-9.72-4.37H10.91Z"/>
  </g>
  <g>
    <path class="cls-3" d="M20.68,108.78c0-5.76,3.29-9.27,8.38-9.27s8.38,3.52,8.38,9.27-3.29,9.27-8.38,9.27-8.38-3.62-8.38-9.27Zm13.41,0c0-4.16-1.84-6.68-5.04-6.68s-5.04,2.52-5.04,6.68,1.87,6.68,5.04,6.68,5.04-2.52,5.04-6.68Z"/>
    <path class="cls-3" d="M42.29,108.18c.62-1.97,1.94-3.32,3.96-3.32,.12,0,.22,0,.35,.02v2.87h-.4c-1.2,0-2.02,.32-2.59,.87-1,.97-1.12,2.39-1.12,3.79v5.21h-2.99v-12.47h2.79v3.02Z"/>
    <path class="cls-3" d="M56.42,106.06c.85,.75,1.32,1.77,1.32,2.99,0,2.47-1.94,4.26-5.14,4.26-.95,0-1.79-.18-2.49-.45-.37,.2-.62,.52-.62,.95,0,.67,.52,1.15,1.89,1.15h3.27c2.92,0,4.41,1.27,4.41,3.59,0,2.57-2.17,4.24-6.66,4.24s-5.86-1.45-5.86-3.22c0-1.1,.72-2.02,2.07-2.44-1.1-.45-1.57-1.27-1.57-2.24,0-1.27,.77-2.17,1.97-2.64-.97-.77-1.52-1.87-1.52-3.19,0-2.47,1.94-4.19,5.11-4.19,1.02,0,1.89,.17,2.64,.5,.4-1.35,1.47-2.29,3.27-2.29,.25,0,.45,.03,.7,.07v2.24c-.32-.07-.65-.12-1.02-.12-.82,0-1.4,.25-1.77,.8Zm-5.46,11.44c-.37,0-.72,0-1.02-.05-.62,.4-.9,.97-.9,1.57,0,1.32,1.42,1.82,3.56,1.82,2.84,0,3.74-.77,3.74-1.79s-.72-1.52-2.14-1.52l-3.24-.03Zm3.94-8.43c0-1.42-.9-2.39-2.29-2.39s-2.29,.97-2.29,2.37,.9,2.44,2.29,2.44,2.29-1.02,2.29-2.42Z"/>
    <path class="cls-3" d="M59.34,114.24c0-1.2,.52-2.19,1.52-2.82,.9-.52,2.09-.85,4.06-1.12l2.64-.32v-.32c0-1.87-.72-2.67-2.32-2.67-1.47,0-2.34,.77-2.44,2.19h-3.07c.2-2.67,2.29-4.31,5.51-4.31,3.69,0,5.34,1.57,5.34,5.19v3.71c0,1.69,.12,2.99,.37,3.86h-2.99c-.1-.62-.17-1.37-.2-2.14-.6,1.52-2.17,2.44-4.16,2.44-2.57,0-4.26-1.47-4.26-3.69Zm8.3-1.72v-.8l-2.82,.42c-1.65,.27-2.39,.87-2.39,1.94s.8,1.72,2.12,1.72c1.84,0,3.09-1.32,3.09-3.29Z"/>
    <path class="cls-3" d="M73.4,117.63v-12.47h2.84v2.42c.85-1.82,2.22-2.72,4.14-2.72,2.72,0,4.14,1.69,4.14,5.04v7.73h-3.02v-7.43c0-1.97-.75-2.94-2.32-2.94-1.75,0-2.79,1.4-2.79,3.76v6.61h-2.99Z"/>
    <path class="cls-3" d="M87.18,103.09v-3.12h3.24v3.12h-3.24Zm.12,14.53v-12.47h2.99v12.47h-2.99Z"/>
    <path class="cls-3" d="M92.34,111.39c0-4.06,2.34-6.53,6.13-6.53,3.09,0,5.11,1.65,5.49,4.49l-2.92,.47c-.2-1.69-1.17-2.62-2.64-2.62-1.84,0-2.99,1.55-2.99,4.11s1.12,4.24,3.04,4.24c1.5,0,2.42-.92,2.69-2.67l2.82,.57c-.45,2.77-2.54,4.46-5.51,4.46-3.71,0-6.11-2.57-6.11-6.53Z"/>
    <path class="cls-3" d="M104.75,114.54l2.22-1c.57,1.4,1.82,2.19,3.59,2.19,1.52,0,2.32-.65,2.32-1.55s-.55-1.25-1.77-1.45l-2.22-.4c-2.34-.42-3.56-1.65-3.56-3.64,0-2.24,1.92-3.84,5.09-3.84,2.64,0,4.66,1.07,5.26,2.87l-2.09,1.12c-.6-1.12-1.69-1.82-3.34-1.82-1.4,0-2.17,.52-2.17,1.5,0,.85,.55,1.22,1.65,1.42l2.44,.45c2.42,.42,3.44,1.62,3.44,3.59,0,2.34-1.84,3.94-5.11,3.94-2.84,0-4.96-1.2-5.73-3.39Z"/>
  </g>
  <g>
    <path class="cls-3" d="M69.15,86.18c-.33,0-.61,.87-.61,1.2s.27,.61,.61,.61,.61-.27,.61-.61-.27-1.2-.61-1.2Z"/>
    <g>
      <path class="cls-3" d="M71.47,80.21c-.57,.23-1.16,.4-1.76,.52-.68,.17-1.19,.28-1.55,.66-.06,.07-.12,.14-.17,.22-.06,.09-.03,.21,.07,.27,.09,.05,.21,.02,.27-.07,.26-.43,.74-.54,1.47-.7,.62-.13,1.23-.31,1.82-.54,1.83-.74,1.48-3.48,1.46-3.6-.01-.07-.05-.13-.12-.15-.06-.03-.13-.02-.19,.02-.29,.2-.7,.29-1.59,.49l-.89,.21c-2.33,.56-2.33,2.83-2.33,2.86,0,.11,.09,.2,.2,.2,.05,0,.1-.02,.14-.06,.04-.04,.06-.09,.06-.14,0-.58,.21-1.14,.58-1.59,.37-.45,.88-.76,1.45-.88l.89-.21h0c.49-.09,.98-.22,1.45-.4,.02,.69-.03,2.39-1.25,2.88h0Z"/>
      <path class="cls-3" d="M67.74,87.28c-.18,0-.32,.46-.32,.64,.01,.17,.15,.3,.32,.3s.31-.13,.32-.3c0-.18-.15-.64-.32-.64h0Z"/>
      <path class="cls-3" d="M74,82.26s0-.01,0-.02c-.01-.02-.02-.04-.04-.05-.66-.55-1.51-.82-2.36-.74-.52,.03-1.04,.13-1.54,.29-.29,.09-.6,.2-.9,.33-.16,.07-.32,.14-.49,.22-.05,.03-.11,.05-.16,.08-.08,.04-.25,.14-.28,.12-2.63-1.25-4.65-1.24-5.85,.06h0s0,.01,0,.01c-.01,.01-.02,.03-.03,.05,0,0,0,.02,0,.02,0,.02,0,.05,0,.07h0s.02,.07,.03,.09c.02,.02,.03,.04,.05,.05,2.47,1.37,3.42,4.74,2.04,7.35-.17,.31-.36,.61-.58,.89-.11,.14-.22,.27-.35,.39-.06,.06-.12,.12-.19,.18h0s-.01,.01-.02,.02c0,0-.02,.02-.02,.03,0,.01,0,.03-.01,.04v.02h0s0,.04,0,.05c0,0,0,.01,0,.02,0,.01,.01,.03,.02,.04,0,0,0,.02,.01,.03,.09,.11,.18,.21,.27,.31,.56,.63,1.23,1.16,1.98,1.56,.34,.19,.72,.3,1.11,.32,.2,0,.39-.04,.57-.13,.12-.06,.23-.13,.34-.22,.1-.09,.22-.16,.34-.21,.2-.07,.41-.07,.6,0,.1,.05,.2,.11,.29,.18,.12,.09,.24,.17,.38,.23,.26,.12,.54,.16,.82,.14,.87-.1,1.65-.81,2.17-1.28h0c.38-.35,.73-.73,1.04-1.13,.06-.07,.09-.16,.08-.25-.02-.08-.06-.15-.13-.19-.01-.01-.03-.02-.04-.03-.08-.08-.16-.16-.25-.25h0c-.16-.16-.31-.32-.45-.5-.53-.72-.88-1.56-1.03-2.45-.18-1.06-.04-2.15,.39-3.13,.44-.98,1.16-1.81,2.07-2.39l.03-.04,.02-.02h0s.02-.04,.02-.06v-.02s.02-.06,.01-.1h0Zm-5.95,.58c.23,.07,.47,.02,.65-.13,.04-.02,.09-.05,.13-.07,.16-.07,.31-.14,.47-.21h0c.28-.12,.57-.23,.87-.32,.47-.15,.95-.25,1.44-.28,.53-.04,1.07,.06,1.55,.29-1.19,.05-2.19,.45-2.74,1.09l-.64-.05c-1.16-.09-2.26-.17-3.23,.16-.79-1.01-2.17-1.08-3.36-.95,1.11-.71,2.74-.55,4.86,.46h0Zm3.9,9.68c-.48,.45-1.2,1.11-1.95,1.19-.21,.02-.42-.01-.62-.1-.11-.05-.21-.12-.31-.19-.11-.09-.23-.16-.35-.22-.14-.06-.3-.1-.46-.09-.15,0-.31,.02-.45,.07-.16,.07-.31,.16-.44,.27-.09,.07-.18,.13-.28,.19-.33,.16-.76,.1-1.32-.19-.66-.36-1.27-.82-1.78-1.37,.93,.14,1.75,.38,2.02,.91h0c.04,.09,.14,.13,.23,.1,1.46-.41,2.67-.4,3.71,.05h0s.05,.02,.08,.02c.05,0,.09-.02,.13-.05,.74-.61,1.59-1.06,2.51-1.33-.23,.26-.47,.51-.72,.74h0Zm-.88-4.45c.15,.95,.53,1.85,1.1,2.62,.15,.2,.3,.38,.47,.56,.03,.03,.06,.06,.1,.1h0c-1,.25-1.94,.72-2.75,1.37-1.05-.42-2.27-.44-3.71-.06-.43-.64-1.41-.88-2.38-1.01,.1-.1,.2-.21,.28-.32,.24-.29,.45-.61,.63-.94,1.38-2.63,.58-5.98-1.73-7.59,1.67-.22,2.68,.06,3.24,.88l.09,.13,.15-.06c.92-.36,1.98-.28,3.2-.19,.25,.02,.49,.04,.74,.05h.11l.06-.09c.46-.6,1.4-.97,2.52-1.02-.81,.66-1.44,1.52-1.81,2.49-.37,.98-.48,2.03-.31,3.06h0Z"/>
    </g>
  </g>
</svg>