<?xml version="1.0" encoding="UTF-8"?>
<svg id="Layer_1" data-name="Layer 1" xmlns="http://www.w3.org/2000/svg" viewBox="0 0 100 100">
  <defs>
    <style>
      .cls-1 {
        fill: #f7f7f7;
      }

      .cls-2 {
        fill: #3c3c3b;
      }
    </style>
  </defs>
  <path class="cls-1" d="M86.19,88.22c0,3.1-8.46,6.56-20.59,6.56s-20.59-3.46-20.59-6.56v-4.07h0s0-70.96,0-70.96c1.14,1.09,2.92,2.06,5.25,2.86,4.11,1.41,9.56,2.18,15.34,2.18s11.23-.77,15.34-2.18c2.34-.8,4.11-1.77,5.25-2.86V88.22Z"/>
  <path class="cls-1" d="M86.19,10.41c0,3.1-8.46,6.56-20.59,6.56s-20.59-3.46-20.59-6.56c0-1.76,2.73-3.64,7.32-4.94,3.48-.98,8.04-1.63,13.27-1.63,12.13,0,20.59,3.46,20.59,6.56h0Z"/>
  <path class="cls-2" d="M65.6,14.58c4.86,0,9.78-1.38,9.78-4s-4.92-4-9.78-4-9.79,1.38-9.79,4c0,2.63,4.92,4,9.79,4Z"/>
  <path class="cls-2" d="M52.46,86.2c-.42,0-.75,.34-.75,.75v3.29c0,.42,.34,.75,.75,.75s.75-.34,.75-.75v-3.29c0-.42-.34-.75-.75-.75h0Z"/>
  <path class="cls-2" d="M52.46,78.8c-.42,0-.75,.34-.75,.75v3.29c0,.42,.34,.75,.75,.75s.75-.34,.75-.75v-3.29c0-.42-.34-.75-.75-.75Z"/>
  <path class="cls-2" d="M52.46,71.4c-.42,0-.75,.34-.75,.75v3.29c0,.42,.34,.75,.75,.75s.75-.34,.75-.75v-3.29c0-.42-.34-.75-.75-.75Z"/>
  <path class="cls-2" d="M52.46,63.99c-.42,0-.75,.34-.75,.75v3.29c0,.42,.34,.75,.75,.75s.75-.34,.75-.75v-3.29c0-.41-.34-.75-.75-.75Z"/>
  <path class="cls-2" d="M52.46,56.59c-.42,0-.75,.34-.75,.75v3.29c0,.42,.34,.75,.75,.75s.75-.34,.75-.75v-3.29c0-.42-.34-.75-.75-.75Z"/>
  <path class="cls-2" d="M52.46,49.19c-.42,0-.75,.34-.75,.75v3.29c0,.42,.34,.75,.75,.75s.75-.34,.75-.75v-3.29c0-.42-.34-.75-.75-.75Z"/>
  <path class="cls-2" d="M52.46,41.78c-.42,0-.75,.34-.75,.75v3.29c0,.42,.34,.75,.75,.75s.75-.34,.75-.75v-3.29c0-.42-.34-.75-.75-.75h0Z"/>
  <path class="cls-2" d="M52.46,34.38c-.42,0-.75,.34-.75,.75v3.29c0,.42,.34,.75,.75,.75s.75-.34,.75-.75v-3.29c0-.42-.34-.75-.75-.75Z"/>
  <path class="cls-2" d="M52.46,26.98c-.42,0-.75,.34-.75,.75v3.29c0,.42,.34,.75,.75,.75s.75-.34,.75-.75v-3.29c0-.42-.34-.75-.75-.75Z"/>
  <path class="cls-2" d="M52.46,19.57c-.42,0-.75,.34-.75,.75v3.29c0,.42,.34,.75,.75,.75s.75-.34,.75-.75v-3.29c0-.42-.34-.75-.75-.75Z"/>
  <path class="cls-2" d="M80.94,4.69c-4.11-1.41-9.56-2.18-15.34-2.18-4.98,0-9.71,.58-13.56,1.64-8.6,.24-16.85,2.17-24.53,5.75-5.44,2.53-10.47,5.86-14.96,9.88-.16,.14-.25,.35-.25,.56V96.74c0,.3,.18,.57,.45,.69,.1,.04,.2,.06,.3,.06,.18,0,.37-.07,.51-.2,3.6-3.31,7.67-6,12.11-7.99,5.61-2.52,11.6-3.86,17.82-3.99v3.3c0,2.3,2.4,4.39,6.76,5.89,4.11,1.41,9.56,2.18,15.34,2.18s11.23-.78,15.34-2.18c4.36-1.49,6.76-3.58,6.76-5.89V10.57c0-2.3-2.4-4.39-6.76-5.89h0Zm5.25,5.89c0,3.1-8.46,6.56-20.59,6.56s-20.59-3.46-20.59-6.56c0-1.76,2.73-3.64,7.32-4.94,3.48-.98,8.04-1.63,13.27-1.63,12.13,0,20.59,3.46,20.59,6.56h0Zm-47.68,14.05c.42,0,.75,.34,.75,.75v3.29c0,.42-.34,.75-.75,.75s-.75-.34-.75-.75v-3.29c0-.42,.34-.75,.75-.75Zm-.75-3.36v-3.29c0-.42,.34-.75,.75-.75s.75,.34,.75,.75v3.29c0,.42-.34,.75-.75,.75-.42,0-.75-.34-.75-.75h0Zm.75,10.76c.42,0,.75,.34,.75,.75v3.29c0,.42-.34,.75-.75,.75s-.75-.34-.75-.75v-3.29c0-.42,.34-.75,.75-.75Zm0,7.4c.42,0,.75,.34,.75,.75v3.29c0,.41-.34,.75-.75,.75s-.75-.34-.75-.75v-3.29c0-.42,.34-.75,.75-.75Zm0,7.4c.42,0,.75,.34,.75,.75v3.29c0,.42-.34,.75-.75,.75s-.75-.34-.75-.75v-3.29c0-.42,.34-.75,.75-.75Zm0,7.4c.42,0,.75,.34,.75,.75v3.29c0,.42-.34,.75-.75,.75s-.75-.34-.75-.75v-3.29c0-.42,.34-.75,.75-.75Zm0,7.4c.42,0,.75,.34,.75,.75v3.29c0,.42-.34,.75-.75,.75s-.75-.34-.75-.75v-3.29c0-.42,.34-.75,.75-.75Zm0,7.4c.42,0,.75,.34,.75,.75v3.29c0,.42-.34,.75-.75,.75s-.75-.34-.75-.75v-3.29c0-.42,.34-.75,.75-.75Zm0,7.4c.42,0,.75,.34,.75,.75v3.29c0,.42-.34,.75-.75,.75s-.75-.34-.75-.75v-3.29c0-.41,.34-.75,.75-.75Zm.75-62.58c0,.42-.34,.75-.75,.75s-.75-.34-.75-.75v-3.29c0-.42,.34-.75,.75-.75s.75,.34,.75,.75v3.29Zm46.93,74.76c0,3.1-8.46,6.56-20.59,6.56s-20.59-3.46-20.59-6.56v-4.07h0s0-70.96,0-70.96c1.14,1.09,2.92,2.06,5.25,2.86,4.11,1.41,9.56,2.18,15.34,2.18s11.23-.77,15.34-2.18c2.34-.8,4.11-1.77,5.25-2.86V88.62Z"/>
</svg>