<?xml version="1.0" encoding="UTF-8"?>
<svg id="Layer_1" data-name="Layer 1" xmlns="http://www.w3.org/2000/svg" xmlns:xlink="http://www.w3.org/1999/xlink" viewBox="0 0 136.35 197.94">
  <defs>
    <style>
      .cls-1 {
        fill: none;
      }

      .cls-2 {
        clip-path: url(#clippath);
      }

      .cls-3 {
        fill: #f7f7f7;
      }

      .cls-4 {
        fill: #ff6046;
      }

      .cls-5 {
        fill: #39332e;
      }

      .cls-6 {
        fill: #fff;
        fill-rule: evenodd;
      }
    </style>
    <clipPath id="clippath">
      <path class="cls-1" d="M2.31,5.33c-1.37,0-2.43,1.18-2.3,2.54L17.93,183.49c.83,8.1,6,14.46,10.58,14.46H107.84c4.57,0,9.76-6.36,10.58-14.46L136.34,7.87c.14-1.36-.93-2.54-2.3-2.54H2.31Z"/>
    </clipPath>
  </defs>
  <g>
    <g>
      <path class="cls-5" d="M3.38,5.33c-1.94,0-3.46,1.68-3.26,3.61L17.93,183.49c.83,8.1,6,14.46,10.58,14.46H107.84c4.57,0,9.76-6.36,10.58-14.46L136.23,8.94c.2-1.93-1.32-3.61-3.26-3.61H3.38Z"/>
      <g class="cls-2">
        <path class="cls-4" d="M137.01,30.13c0-.76-.61-1.37-1.37-1.37H2.03c-.76,0-1.37,.61-1.37,1.37H.66c0,.76,.61,1.37,1.37,1.37H37.75c.53,0,1.03,.3,1.24,.79,.97,2.26,3.22,3.85,5.84,3.85h48.02c2.62,0,4.87-1.59,5.84-3.85,.21-.49,.71-.79,1.24-.79h35.72c.76,0,1.37-.61,1.37-1.37h0Z"/>
      </g>
    </g>
    <path class="cls-4" d="M10.91,0C6.68,0,1.89,1.9,1.12,4.37l-1.12,3.72H136.35l-1.2-3.72c-.76-2.46-5.48-4.37-9.72-4.37H10.91Z"/>
  </g>
  <g>
    <path class="cls-3" d="M29.17,117.94v-17.7h3.22v15.06h7.73v2.64h-10.94Z"/>
    <path class="cls-3" d="M40.96,114.55c0-1.2,.52-2.19,1.52-2.82,.9-.52,2.09-.85,4.06-1.12l2.64-.32v-.32c0-1.87-.72-2.67-2.32-2.67-1.47,0-2.34,.77-2.44,2.19h-3.07c.2-2.67,2.29-4.31,5.51-4.31,3.69,0,5.33,1.57,5.33,5.18v3.71c0,1.69,.12,2.99,.37,3.86h-2.99c-.1-.62-.17-1.37-.2-2.14-.6,1.52-2.17,2.44-4.16,2.44-2.57,0-4.26-1.47-4.26-3.69Zm8.3-1.72v-.8l-2.82,.42c-1.65,.27-2.39,.87-2.39,1.94s.8,1.72,2.12,1.72c1.84,0,3.09-1.32,3.09-3.29Z"/>
    <path class="cls-3" d="M55.01,117.94v-12.46h2.84v2.42c.85-1.82,2.22-2.72,4.14-2.72,2.72,0,4.14,1.69,4.14,5.04v7.73h-3.02v-7.43c0-1.97-.75-2.94-2.32-2.94-1.74,0-2.79,1.4-2.79,3.76v6.61h-2.99Z"/>
    <path class="cls-3" d="M67.9,111.73c0-3.89,2.14-6.56,5.26-6.56,1.65,0,2.87,.67,3.59,2.07v-7.38h2.99v18.07h-2.82v-2.24c-.7,1.6-2.12,2.54-3.99,2.54-3.02,0-5.04-2.62-5.04-6.51Zm8.92,.4v-.8c0-2.44-1.1-3.86-2.89-3.86s-2.92,1.55-2.92,4.21,1.12,4.26,2.94,4.26,2.87-1.47,2.87-3.81Z"/>
    <path class="cls-3" d="M89.49,105.47v2.17h-3.02v10.29h-2.99v-10.29h-2.14v-2.17h2.14v-1.6c0-2.59,1.57-4.16,4.24-4.16,.62,0,1.22,.07,1.77,.2v2.32c-.45-.07-.9-.12-1.27-.12-1.2,0-1.74,.65-1.74,1.97v1.4h3.02Zm2.42-2.07v-3.12h3.24v3.12h-3.24Zm.12,14.53v-12.46h2.99v12.46h-2.99Z"/>
    <path class="cls-3" d="M101.1,99.87v18.07h-2.99v-18.07h2.99Z"/>
    <path class="cls-3" d="M107.18,99.87v18.07h-2.99v-18.07h2.99Z"/>
  </g>
  <path class="cls-6" d="M65.1,78.77h-3.01c-.51,0-.92,.41-.92,.92v1.9c0,.18,.15,.33,.33,.33h.77l.74,11.32c.03,.48,.43,.86,.92,.86h8.49c.49,0,.89-.38,.92-.86l.74-11.32h.77c.18,0,.33-.15,.33-.33v-1.9c0-.51-.41-.92-.92-.92h-3.01v-1.04c0-.51-.41-.92-.92-.92h-4.3c-.51,0-.92,.41-.92,.92v1.04Zm8.32,3.15l-.74,11.28c0,.14-.13,.25-.27,.25h-8.49c-.14,0-.26-.11-.27-.25l-.74-11.28h10.5Zm-5.58,1.63v7.93c0,.18,.15,.33,.33,.33s.33-.15,.33-.33v-7.93c0-.18-.15-.33-.33-.33s-.33,.15-.33,.33h0Zm2.47,0v7.93c0,.18,.15,.33,.33,.33s.33-.15,.33-.33v-7.93c0-.18-.15-.33-.33-.33s-.33,.15-.33,.33h0Zm-4.93,0v7.93c0,.18,.15,.33,.33,.33s.33-.15,.33-.33v-7.93c0-.18-.15-.33-.33-.33s-.33,.15-.33,.33h0Zm8.87-4.12h-12.16c-.15,0-.27,.12-.27,.27v1.58h12.69v-1.58c0-.15-.12-.27-.27-.27h0Zm-3.66-.65v-1.04c0-.15-.12-.27-.27-.27h-4.3c-.15,0-.27,.12-.27,.27v1.04h4.84Z"/>
</svg>