<?xml version="1.0" encoding="UTF-8"?>
<svg id="Layer_1" data-name="Layer 1" xmlns="http://www.w3.org/2000/svg" viewBox="0 0 98 61.69">
  <defs>
    <style>
      .cls-1 {
        fill: #f3e300;
      }

      .cls-2 {
        fill: #825a3c;
      }

      .cls-3 {
        fill: #d6af99;
        stroke: #825a3c;
        stroke-miterlimit: 10;
        stroke-width: .14px;
      }
    </style>
  </defs>
  <path class="cls-2" d="M92.66,18.98v-3.14c0-1.66-1.04-3.15-2.61-3.71L57.07,.23c-.43-.16-.89-.23-1.34-.23s-.91,.08-1.34,.23L22.75,11.64c-.86-.06-1.73-.09-2.61-.09-3.74,0-7.3,.55-10,1.54-5.66,2.08-6.51,5.66-6.51,7.6v4.74c-3.08,2.09-3.64,4.69-3.64,6.27,0,1.42,.49,4.14,3.74,6.31,.12,.76,.38,1.47,.75,2.14v3.5c0,5.64,6.33,9.15,16.5,9.15,.65,0,1.29-.02,1.93-.05,1.29,6.58,10.76,8.93,19.31,8.93s17.66-2.27,19.23-8.56l29.43-10.62c1.57-.56,2.61-2.05,2.61-3.71v-5.75c2.89-1.62,4.49-3.95,4.49-6.82,0-3.13-1.92-5.61-5.34-7.24h0ZM7.68,20.01c.02-.07,.05-.14,.08-.21,.05-.15,.11-.29,.18-.43,.04-.08,.09-.15,.14-.23,.04-.06,.09-.12,.13-.18,.04-.06,.08-.12,.13-.18,.06-.07,.13-.14,.2-.22,.05-.06,.12-.11,.18-.17,.06-.05,.12-.11,.18-.17,.08-.06,.15-.13,.23-.19,.15-.11,.32-.22,.49-.33,.08-.05,.15-.1,.23-.14,.13-.08,.28-.14,.41-.21,.14-.07,.27-.14,.41-.21,0,0,.02,0,.03-.01,0,0,0,0,0,0,.28-.13,.58-.25,.89-.36,.11-.04,.22-.07,.33-.11,0,0,0,0,0,0,.22-.08,.45-.15,.69-.22h0c.13-.04,.27-.07,.41-.11h0c.23-.06,.46-.12,.69-.17h0c.14-.03,.29-.06,.44-.1h0c.08-.02,.16-.03,.25-.05,.16-.03,.33-.06,.49-.09,.15-.02,.29-.05,.44-.07h0c.08-.01,.16-.02,.24-.03,.2-.03,.4-.06,.6-.08,.12-.02,.25-.03,.37-.05,.41-.04,.83-.08,1.25-.11,.03,0,.06,0,.09,0h0c.39-.03,.79-.04,1.18-.06,.14,0,.28,0,.42,0,.27,0,.55,0,.82,0,.34,0,.67,.01,1,.02,.16,0,.32,0,.48,.02,.49,.02,.98,.06,1.46,.1L55.72,3.95l32.99,11.9-3.38,1.22-9.09,3.28-3.7,1.33-.43,.15-1.7,.61-3.7,1.33-.43,.15-4.55,1.64h0s-5.01,1.81-5.01,1.81c.1,.32,.16,.64,.16,.99,0,.25-.03,.5-.08,.74-.02,.08-.05,.15-.07,.23-.05,.16-.1,.31-.17,.47-.04,.09-.09,.17-.14,.25-.07,.13-.15,.27-.24,.4-.06,.08-.13,.17-.2,.25-.1,.12-.21,.24-.32,.36-.08,.08-.16,.16-.25,.23-.13,.11-.26,.22-.4,.33-.1,.07-.19,.14-.29,.21-.15,.11-.32,.21-.48,.31-.11,.06-.21,.13-.32,.19-.19,.1-.39,.2-.59,.3-.11,.05-.21,.1-.31,.15-.25,.11-.52,.22-.79,.32-.07,.03-.13,.06-.2,.08-.34,.13-.7,.24-1.07,.35-.13,.04-.27,.07-.4,.11-.24,.07-.49,.14-.74,.2-.18,.04-.36,.08-.54,.12-.22,.05-.43,.1-.66,.14-.2,.04-.41,.08-.62,.11-.21,.04-.41,.07-.62,.1-.23,.04-.46,.07-.69,.1-.19,.03-.39,.05-.58,.07-.25,.03-.5,.06-.76,.08-.17,.02-.35,.03-.53,.05-.28,.02-.56,.04-.84,.06-.14,0-.28,.01-.42,.02-.32,.02-.64,.03-.96,.04-.04,0-.09,0-.13,0-3.85,.1-7.78-.33-10.85-1.29,0,0,0,0-.01,0-.32-.1-.63-.21-.93-.32-.06-.02-.12-.05-.19-.07-.24-.09-.47-.19-.69-.28-.08-.04-.16-.07-.24-.11-.2-.09-.38-.19-.57-.28-.08-.05-.17-.09-.25-.14-.17-.1-.33-.2-.49-.3-.08-.05-.16-.1-.23-.15-.16-.11-.3-.22-.44-.34-.06-.05-.12-.09-.18-.14-.19-.17-.37-.34-.53-.52-.07-.08-.15-.15-.21-.23-.36-.47-.6-.97-.72-1.52-.04-.18-.06-.37-.07-.56,0-.05-.02-.1-.02-.14,0-.29,.04-.57,.11-.84h0c.06-.23,.13-.45,.24-.66,.06-.13,.14-.26,.22-.38,.39-.61,.96-1.16,1.69-1.65-.54,.17-1.13,.32-1.73,.45-.05,.01-.1,.02-.15,.03-.61,.13-1.24,.24-1.89,.32,0,0,0,0-.01,0-.65,.09-1.31,.15-1.99,.19-.06,0-.11,0-.17,.01-.68,.04-1.36,.06-2.05,.06-.02,0-.03,0-.05,0-.33,0-.67,0-1-.02-.1,0-.21,0-.31-.01-.27-.01-.53-.02-.8-.04-.09,0-.18-.01-.27-.02-.34-.02-.68-.05-1.02-.09-.07,0-.14-.02-.2-.02-.27-.03-.54-.06-.81-.1-.1-.01-.2-.03-.3-.04-.09-.01-.17-.03-.26-.04-.18-.03-.36-.06-.53-.09-.06-.01-.12-.02-.18-.03-.31-.06-.62-.13-.92-.2-.08-.02-.16-.04-.24-.06-.23-.06-.45-.12-.67-.18-.08-.03-.16-.05-.25-.08-.28-.09-.56-.18-.82-.27,0,0-.01,0-.02,0-.26-.1-.5-.2-.73-.3-.07-.03-.14-.06-.21-.1-.18-.09-.36-.17-.53-.27-.06-.03-.11-.06-.17-.09-.21-.12-.41-.25-.6-.38-.04-.02-.07-.05-.1-.08-.07-.05-.14-.11-.21-.17-.07-.06-.15-.11-.21-.17-.05-.04-.09-.09-.14-.13-.12-.12-.24-.25-.34-.38-.02-.03-.05-.06-.07-.09-.12-.16-.22-.32-.3-.49-.02-.04-.04-.09-.06-.13-.06-.13-.11-.27-.14-.41-.01-.05-.03-.1-.04-.16-.04-.18-.06-.37-.06-.57,0-.24,.03-.46,.09-.69h0Zm86.3,6.9c-.02,.07-.05,.14-.08,.22-.05,.14-.09,.28-.16,.42-.04,.08-.1,.16-.15,.24-.07,.12-.14,.24-.23,.35,0,0-.02,.02-.02,.03-.06,.07-.13,.14-.19,.21-.1,.1-.19,.21-.3,.31-.08,.08-.18,.15-.27,.23-.1,.08-.2,.16-.3,.23-.02,.01-.04,.03-.06,.04-.11,.07-.22,.14-.33,.21-.05,.03-.09,.05-.14,.08-.09,.05-.18,.11-.27,.16-.12,.07-.25,.13-.38,.19-.15,.07-.31,.15-.47,.22-.14,.06-.28,.12-.43,.17-.17,.06-.34,.13-.51,.19-.15,.05-.31,.11-.47,.15-.18,.06-.36,.11-.55,.16-.17,.05-.33,.09-.5,.13-.19,.05-.39,.1-.59,.14-.16,.04-.32,.07-.48,.1-.02,0-.03,0-.04,0-.17,.03-.35,.06-.52,.1-.04,0-.07,.01-.11,.02-.18,.03-.36,.06-.54,.09-.22,.03-.44,.06-.66,.09-.18,.02-.36,.05-.55,.07-.23,.03-.46,.05-.69,.07-.18,.02-.36,.03-.55,.05-.06,0-.11,0-.17,0h-.01c-.18,.02-.37,.02-.55,.03-.18,0-.35,.02-.53,.03-.26,0-.53,.01-.79,.02-.16,0-.32,0-.48,0-.01,0-.03,0-.04,0-.41,0-.81,0-1.22-.02-.23,.64-.7,1.22-1.33,1.73-1.1,.88-2.74,1.54-4.66,2-.18,.88-.44,1.67-.76,2.31-.51,1.02-1.2,1.66-2.06,1.66-.45,0-.84-.18-1.2-.48-.48-.42-.88-1.1-1.18-1.93-.04-.1-.08-.21-.11-.32-.1,.17-.23,.33-.36,.49-1.1,1.29-3.23,2.21-5.82,2.78-.69,1.32-2.37,2.31-4.57,3-.26,.08-.51,.16-.78,.23-.04,.73-.36,1.38-.88,1.96,0,0,0,0,0,0-1.68,1.85-5.53,2.93-9.74,3.24-.45,1.04-1,1.89-1.63,2.49s-1.36,.93-2.18,.93c-.77,0-1.45-.31-2.06-.83-.74-.64-1.36-1.61-1.86-2.83,0-.02-.02-.04-.03-.06-2.6-.41-4.87-1.16-6.33-2.23-1.18-.14-2.3-.34-3.34-.61-1.04-.27-1.99-.6-2.81-.99-1.28-.61-2.24-1.37-2.72-2.29,0,0,0,0,0-.02-.06-.11-.11-.22-.15-.33-4.46-.27-8.58-1.38-10.28-3.35,0,0,0,0,0,0-.38-.44-.64-.92-.75-1.44-.97-.15-1.89-.36-2.74-.6,0,0,0,0-.01,0-.22-.06-.43-.13-.64-.2h0c-.25-.08-.5-.17-.74-.26,0,0,0,0-.01,0-1.13-.44-2.08-.98-2.76-1.62-.2-.19-.39-.39-.54-.6,0,0,0,0,0,0-.38-.53-.59-1.12-.59-1.77,0-.22,.03-.44,.07-.65,.02-.07,.05-.14,.07-.2,.04-.14,.08-.28,.14-.41,0-.02,.02-.04,.04-.06,.2,.42,.45,.82,.74,1.21,.15,.21,.31,.41,.48,.6,.14,.16,.3,.31,.46,.46,.69,.65,1.52,1.22,2.49,1.72,0,0,0,0,0,0,.1,.05,.2,.1,.29,.15,0,0,0,0,.01,0,.19,.09,.37,.18,.56,.27,0,0,0,0,0,0,2.76,1.19,6.43,1.85,10.82,1.85,.65,0,1.29-.02,1.93-.05,.2,1.01,.61,1.91,1.16,2.73h0c.58,.86,1.32,1.63,2.21,2.29,0,0,.01,0,.02,.01,.36,.27,.75,.52,1.16,.76,.05,.03,.11,.06,.17,.09,3.83,2.17,9.38,3.05,14.59,3.05,6.06,0,12.56-1.19,16.3-4.21,.31-.25,.6-.51,.86-.78,.99-1.01,1.72-2.18,2.06-3.56l20.91-7.54,.43-.15,5.39-1.94,.43-.15,2.28-.82c.4-.14,.77-.35,1.09-.61,.71-.55,1.19-1.33,1.4-2.21,.06,.05,.12,.09,.17,.14,.08,.07,.17,.14,.24,.21,.1,.1,.19,.2,.27,.3,.06,.07,.13,.15,.19,.22,.08,.11,.14,.23,.21,.34,.04,.07,.1,.15,.13,.22,.06,.13,.1,.27,.14,.4,.02,.07,.05,.13,.07,.2,.05,.21,.07,.43,.07,.65,0,.24-.03,.46-.08,.69h0Z"/>
  <path class="cls-3" d="M7.68,20.01c.02-.07,.05-.14,.08-.21,.05-.15,.11-.29,.18-.43,.04-.08,.09-.15,.14-.23,.04-.06,.09-.12,.13-.18,.04-.06,.08-.12,.13-.18,.06-.07,.13-.14,.2-.22,.05-.06,.12-.11,.18-.17,.06-.05,.12-.11,.18-.17,.08-.06,.15-.13,.23-.19,.15-.11,.32-.22,.49-.33,.08-.05,.15-.1,.23-.14,.13-.08,.28-.14,.41-.21,.14-.07,.27-.14,.41-.21,0,0,.02,0,.03-.01,0,0,0,0,0,0,.28-.13,.58-.25,.89-.36,.11-.04,.22-.07,.33-.11,0,0,0,0,0,0,.22-.08,.45-.15,.69-.22h0c.13-.04,.27-.07,.41-.11h0c.23-.06,.46-.12,.69-.17h0c.14-.03,.29-.06,.44-.1h0c.08-.02,.16-.03,.25-.05,.16-.03,.33-.06,.49-.09,.15-.02,.29-.05,.44-.07h0c.08-.01,.16-.02,.24-.03,.2-.03,.4-.06,.6-.08,.12-.02,.25-.03,.37-.05,.41-.04,.83-.08,1.25-.11,.03,0,.06,0,.09,0h0c.39-.03,.79-.04,1.18-.06,.14,0,.28,0,.42,0,.27,0,.55,0,.82,0,.34,0,.67,.01,1,.02,.16,0,.32,0,.48,.02,.49,.02,.98,.06,1.46,.1L55.72,3.95l32.99,11.9-3.38,1.22-9.09,3.28-3.7,1.33-.43,.15-1.7,.61-3.7,1.33-.43,.15-4.55,1.64h0s-5.01,1.81-5.01,1.81c.1,.32,.16,.64,.16,.99,0,.25-.03,.5-.08,.74-.02,.08-.05,.15-.07,.23-.05,.16-.1,.31-.17,.47-.04,.09-.09,.17-.14,.25-.07,.13-.15,.27-.24,.4-.06,.08-.13,.17-.2,.25-.1,.12-.21,.24-.32,.36-.08,.08-.16,.16-.25,.23-.13,.11-.26,.22-.4,.33-.1,.07-.19,.14-.29,.21-.15,.11-.32,.21-.48,.31-.11,.06-.21,.13-.32,.19-.19,.1-.39,.2-.59,.3-.11,.05-.21,.1-.31,.15-.25,.11-.52,.22-.79,.32-.07,.03-.13,.06-.2,.08-.34,.13-.7,.24-1.07,.35-.13,.04-.27,.07-.4,.11-.24,.07-.49,.14-.74,.2-.18,.04-.36,.08-.54,.12-.22,.05-.43,.1-.66,.14-.2,.04-.41,.08-.62,.11-.21,.04-.41,.07-.62,.1-.23,.04-.46,.07-.69,.1-.19,.03-.39,.05-.58,.07-.25,.03-.5,.06-.76,.08-.17,.02-.35,.03-.53,.05-.28,.02-.56,.04-.84,.06-.14,0-.28,.01-.42,.02-.32,.02-.64,.03-.96,.04-.04,0-.09,0-.13,0-3.85,.1-7.78-.33-10.85-1.29,0,0,0,0-.01,0-.32-.1-.63-.21-.93-.32-.06-.02-.12-.05-.19-.07-.24-.09-.47-.19-.69-.28-.08-.04-.16-.07-.24-.11-.2-.09-.38-.19-.57-.28-.08-.05-.17-.09-.25-.14-.17-.1-.33-.2-.49-.3-.08-.05-.16-.1-.23-.15-.16-.11-.3-.22-.44-.34-.06-.05-.12-.09-.18-.14-.19-.17-.37-.34-.53-.52-.07-.08-.15-.15-.21-.23-.36-.47-.6-.97-.72-1.52-.04-.18-.06-.37-.07-.56,0-.05-.02-.1-.02-.14,0-.29,.04-.57,.11-.84h0c.06-.23,.13-.45,.24-.66,.06-.13,.14-.26,.22-.38,.39-.61,.96-1.16,1.69-1.65-.54,.17-1.13,.32-1.73,.45-.05,.01-.1,.02-.15,.03-.61,.13-1.24,.24-1.89,.32,0,0,0,0-.01,0-.65,.09-1.31,.15-1.99,.19-.06,0-.11,0-.17,.01-.68,.04-1.36,.06-2.05,.06-.02,0-.03,0-.05,0-.33,0-.67,0-1-.02-.1,0-.21,0-.31-.01-.27-.01-.53-.02-.8-.04-.09,0-.18-.01-.27-.02-.34-.02-.68-.05-1.02-.09-.07,0-.14-.02-.2-.02-.27-.03-.54-.06-.81-.1-.1-.01-.2-.03-.3-.04-.09-.01-.17-.03-.26-.04-.18-.03-.36-.06-.53-.09-.06-.01-.12-.02-.18-.03-.31-.06-.62-.13-.92-.2-.08-.02-.16-.04-.24-.06-.23-.06-.45-.12-.67-.18-.08-.03-.16-.05-.25-.08-.28-.09-.56-.18-.82-.27,0,0-.01,0-.02,0-.26-.1-.5-.2-.73-.3-.07-.03-.14-.06-.21-.1-.18-.09-.36-.17-.53-.27-.06-.03-.11-.06-.17-.09-.21-.12-.41-.25-.6-.38-.04-.02-.07-.05-.1-.08-.07-.05-.14-.11-.21-.17-.07-.06-.15-.11-.21-.17-.05-.04-.09-.09-.14-.13-.12-.12-.24-.25-.34-.38-.02-.03-.05-.06-.07-.09-.12-.16-.22-.32-.3-.49-.02-.04-.04-.09-.06-.13-.06-.13-.11-.27-.14-.41-.01-.05-.03-.1-.04-.16-.04-.18-.06-.37-.06-.57,0-.24,.03-.46,.09-.69h0Z"/>
  <path class="cls-1" d="M93.97,26.91c-.02,.07-.05,.14-.08,.22-.05,.14-.09,.28-.16,.42-.04,.08-.1,.16-.15,.24-.07,.12-.14,.24-.23,.35,0,0-.02,.02-.02,.03-.06,.07-.13,.14-.19,.21-.1,.1-.19,.21-.3,.31-.08,.08-.18,.15-.27,.23-.1,.08-.2,.16-.3,.23-.02,.01-.04,.03-.06,.04-.11,.07-.22,.14-.33,.21-.05,.03-.09,.05-.14,.08-.09,.05-.18,.11-.27,.16-.12,.07-.25,.13-.38,.19-.15,.07-.31,.15-.47,.22-.14,.06-.28,.12-.43,.17-.17,.06-.34,.13-.51,.19-.15,.05-.31,.11-.47,.15-.18,.06-.36,.11-.55,.16-.17,.05-.33,.09-.5,.13-.19,.05-.39,.1-.59,.14-.16,.04-.32,.07-.48,.1-.02,0-.03,0-.04,0-.17,.03-.35,.06-.52,.1-.04,0-.07,.01-.11,.02-.18,.03-.36,.06-.54,.09-.22,.03-.44,.06-.66,.09-.18,.02-.36,.05-.55,.07-.23,.03-.46,.05-.69,.07-.18,.02-.36,.03-.55,.05-.06,0-.11,0-.17,0h-.01c-.18,.02-.37,.02-.55,.03-.18,0-.35,.02-.53,.03-.26,0-.53,.01-.79,.02-.16,0-.32,0-.48,0-.01,0-.03,0-.04,0-.41,0-.81,0-1.22-.02-.23,.64-.7,1.22-1.33,1.73-1.1,.88-2.74,1.54-4.66,2-.18,.88-.44,1.67-.76,2.31-.51,1.02-1.2,1.66-2.06,1.66-.45,0-.84-.18-1.2-.48-.48-.42-.88-1.1-1.18-1.93-.04-.1-.08-.21-.11-.32-.1,.17-.23,.33-.36,.49-1.1,1.29-3.23,2.21-5.82,2.78-.69,1.32-2.37,2.31-4.57,3-.26,.08-.51,.16-.78,.23-.04,.73-.36,1.38-.88,1.96,0,0,0,0,0,0-1.68,1.85-5.53,2.93-9.74,3.24-.45,1.04-1,1.89-1.63,2.49s-1.36,.93-2.18,.93c-.77,0-1.45-.31-2.06-.83-.74-.64-1.36-1.61-1.86-2.83,0-.02-.02-.04-.03-.06-2.6-.41-4.87-1.16-6.33-2.23-1.18-.14-2.3-.34-3.34-.61-1.04-.27-1.99-.6-2.81-.99-1.28-.61-2.24-1.37-2.72-2.29,0,0,0,0,0-.02-.06-.11-.11-.22-.15-.33-4.46-.27-8.58-1.38-10.28-3.35,0,0,0,0,0,0-.38-.44-.64-.92-.75-1.44-.97-.15-1.89-.36-2.74-.6,0,0,0,0-.01,0-.22-.06-.43-.13-.64-.2h0c-.25-.08-.5-.17-.74-.26,0,0,0,0-.01,0-1.13-.44-2.08-.98-2.76-1.62-.2-.19-.39-.39-.54-.6,0,0,0,0,0,0-.38-.53-.59-1.12-.59-1.77,0-.22,.03-.44,.07-.65,.02-.07,.05-.14,.07-.2,.04-.14,.08-.28,.14-.41,0-.02,.02-.04,.04-.06,.2,.42,.45,.82,.74,1.21,.15,.21,.31,.41,.48,.6,.14,.16,.3,.31,.46,.46,.69,.65,1.52,1.22,2.49,1.72,0,0,0,0,0,0,.1,.05,.2,.1,.29,.15,0,0,0,0,.01,0,.19,.09,.37,.18,.56,.27,0,0,0,0,0,0,2.76,1.19,6.43,1.85,10.82,1.85,.65,0,1.29-.02,1.93-.05,.2,1.01,.61,1.91,1.16,2.73h0c.58,.86,1.32,1.63,2.21,2.29,0,0,.01,0,.02,.01,.36,.27,.75,.52,1.16,.76,.05,.03,.11,.06,.17,.09,3.83,2.17,9.38,3.05,14.59,3.05,6.06,0,12.56-1.19,16.3-4.21,.31-.25,.6-.51,.86-.78,.99-1.01,1.72-2.18,2.06-3.56l20.91-7.54,.43-.15,5.39-1.94,.43-.15,2.28-.82c.4-.14,.77-.35,1.09-.61,.71-.55,1.19-1.33,1.4-2.21,.06,.05,.12,.09,.17,.14,.08,.07,.17,.14,.24,.21,.1,.1,.19,.2,.27,.3,.06,.07,.13,.15,.19,.22,.08,.11,.14,.23,.21,.34,.04,.07,.1,.15,.13,.22,.06,.13,.1,.27,.14,.4,.02,.07,.05,.13,.07,.2,.05,.21,.07,.43,.07,.65,0,.24-.03,.46-.08,.69h0Z"/>
</svg>