<?xml version="1.0" encoding="UTF-8"?>
<svg id="Layer_1" data-name="Layer 1" xmlns="http://www.w3.org/2000/svg" viewBox="0 0 100 100">
  <defs>
    <style>
      .cls-1, .cls-2 {
        fill: #f7f7f7;
      }

      .cls-2, .cls-3 {
        fill-rule: evenodd;
      }

      .cls-3 {
        fill: #0b035e;
      }
    </style>
  </defs>
  <path class="cls-3" d="M86.3,17.1l-3.64-10.95c-.81-2.45-3.1-4.1-5.68-4.1H23.03c-2.58,0-4.87,1.65-5.69,4.1l-3.67,10.96c-3.13,.2-5.62,2.74-5.62,5.92v8.99c0,3.31,2.69,5.99,5.99,5.99h3.1c0,.22-.09,.44-.06,.66l5.99,53.94c.34,3.03,2.9,5.33,5.96,5.33h41.95c3.06,0,5.62-2.3,5.95-5.33l6-53.94c.03-.22-.06-.44-.06-.66h3.1c3.31,0,5.99-2.68,5.99-5.99v-8.99c0-3.19-2.52-5.74-5.66-5.93h0ZM23.03,8.05h53.95l3,8.99H20.03l3-8.99h0Zm62.93,23.97H14.04v-8.99H85.96v8.99Z"/>
  <polygon class="cls-2" points="23.03 8.05 76.98 8.05 79.97 17.04 20.03 17.04 23.03 8.05 23.03 8.05"/>
  <rect class="cls-1" x="13.77" y="23.03" width="71.92" height="8.99"/>
</svg>