<?xml version="1.0" encoding="UTF-8"?>
<svg id="Layer_1" data-name="Layer 1" xmlns="http://www.w3.org/2000/svg" viewBox="0 0 100 100">
  <defs>
    <style>
      .cls-1 {
        fill: #f7f7f7;
      }

      .cls-2 {
        fill: #0e63e7;
      }

      .cls-3 {
        fill: #3c3c3b;
      }
    </style>
  </defs>
  <path class="cls-2" d="M93.82,83.04l-12.02,2.84c-.53-.88-1.46-1.47-2.51-1.55l-2.84-12.02c.43-.26,.8-.63,1.08-1.07,.27-.45,.44-.94,.47-1.44l12.02-2.84c.53,.88,1.46,1.47,2.51,1.55l2.84,12.02c-.89,.54-1.47,1.48-1.55,2.51h0Z"/>
  <path class="cls-3" d="M97.49,80.89l-3.22-13.65c-.06-.25-.22-.47-.44-.61-.22-.14-.49-.18-.75-.12-.66,.16-1.35-.28-1.51-.93-.12-.53-.66-.86-1.19-.73l-6.9,1.63c-10.46-4.51-14.34-16.83-17.76-27.72-2.95-9.38-5.5-17.49-11.71-19.14-4.18-1.11-9.49,.96-16.45,6.44l-15.65-2.06c-.26-.03-.52,.04-.73,.2l-11.81,9.07c-.21,.16-.34,.4-.38,.66L2.49,83.32c-.03,.26,.04,.52,.2,.73,.16,.21,.4,.34,.66,.38l46.61,6.13s.08,0,.13,0h0c.11,0,.22-.02,.32-.06,.01,0,.03,0,.04-.01,.09-.04,.18-.09,.26-.16,.02-.01,.03-.03,.05-.04,.02-.02,.04-.03,.06-.05l5.72-6.26,5.8,.87s.1,.01,.15,.01h.01c.55,0,.99-.44,.99-.99,0-.1-.02-.2-.04-.29l-5.89-43.55s-.02-.04-.02-.06c-.01-.05-.03-.1-.05-.15-.03-.07-.06-.13-.1-.19-.01-.02-.02-.04-.03-.06l-9.07-11.81c-.16-.21-.4-.34-.66-.38l-7.3-.96c5.6-4.13,9.95-5.74,13.16-4.89,5.16,1.37,7.55,8.99,10.33,17.82,3.31,10.52,7.03,22.34,16.65,27.84l-3.74,.88c-.53,.13-.86,.66-.73,1.19,.08,.32,.02,.66-.16,.95-.18,.29-.45,.48-.78,.56-.26,.06-.48,.22-.61,.44-.14,.22-.18,.49-.12,.75l3.22,13.65c.06,.25,.22,.47,.44,.61,.22,.14,.49,.18,.75,.12,.66-.16,1.35,.28,1.51,.93,.11,.46,.51,.76,.96,.76,.08,0,.15,0,.23-.03l13.65-3.23c.25-.06,.47-.22,.61-.44,.14-.22,.18-.49,.12-.75-.16-.67,.26-1.35,.93-1.51,.53-.13,.86-.66,.74-1.19h0Zm-41.19,1.07c-.33-.05-.65,.07-.88,.31l-3.96,4.33,.2-1.55,4.92-37.39,4.74,35.06-5.02-.76Zm-9.33-52.67l8.57,11.16-6.31,48.02-44.65-5.87,6.31-48.02,11.16-8.57,13.39,1.76c-1.06,.9-2.16,1.87-3.3,2.92l-4.86-.64c-.54-.07-1.04,.31-1.11,.85s.31,1.04,.85,1.11l14.38,1.89s.09,0,.13,0c.49,0,.91-.36,.98-.86,.07-.54-.31-1.04-.85-1.11l-6.95-.91c1.18-1.05,2.32-2.02,3.41-2.9l8.85,1.16Zm46.85,53.76l-12.02,2.84c-.53-.88-1.46-1.47-2.51-1.55l-2.84-12.02c.43-.26,.8-.63,1.08-1.07,.27-.45,.44-.94,.47-1.44l12.02-2.84c.53,.88,1.46,1.47,2.51,1.55l2.84,12.02c-.89,.54-1.47,1.48-1.55,2.51h0Z"/>
  <path class="cls-3" d="M87.15,69.42l-4.77,1.13c-.53,.13-.86,.66-.73,1.19,.11,.45,.51,.76,.96,.76,.08,0,.15,0,.23-.03l4.77-1.13c.53-.12,.86-.66,.73-1.19-.12-.53-.66-.86-1.19-.74h0Z"/>
  <path class="cls-1" d="M46.97,29.29l8.57,11.16-6.31,48.02-44.65-5.87,6.31-48.02,11.16-8.57,13.39,1.76c-1.06,.9-2.16,1.87-3.3,2.92l-4.86-.64c-.54-.07-1.04,.31-1.11,.85s.31,1.04,.85,1.11l14.38,1.89s.09,0,.13,0c.49,0,.91-.36,.98-.86,.07-.54-.31-1.04-.85-1.11l-6.95-.91c1.18-1.05,2.32-2.02,3.41-2.9l8.85,1.16Z"/>
  <path class="cls-1" d="M56.31,81.96c-.33-.05-.65,.07-.88,.31l-3.96,4.33,.2-1.55,4.92-37.39,4.74,35.06-5.02-.76Z"/>
</svg>