<?xml version="1.0" encoding="UTF-8"?>
<svg id="Layer_1" data-name="Layer 1" xmlns="http://www.w3.org/2000/svg" viewBox="0 0 100 100">
  <defs>
    <style>
      .cls-1 {
        fill: #f7f7f7;
      }

      .cls-2 {
        fill: #01dbca;
      }

      .cls-3 {
        fill: #0e63e7;
      }
    </style>
  </defs>
  <g>
    <path class="cls-1" d="M63.73,85.48c0,3.88-1.56,10.59-3.63,11.54-2.38,1.09-5.01,.2-5.82-.61-1.13-1.13-7.22-1.35-8.57,0-.8,.8-3.44,1.7-5.82,.61-2.07-.95-3.63-7.65-3.63-11.54V52.37c0-2.8,.68-4.74,1.23-6.31,.36-1.03,.67-1.92,.67-2.76,0-.7-.21-1.35-.48-2.17-.56-1.72-1.41-4.32-1.41-10.27,0-8.44,8.53-15.46,8.62-15.52,.15-.12,.24-.31,.24-.5v-2.67h9.75v2.67c0,.19,.09,.38,.24,.5,.09,.07,8.62,7.09,8.62,15.52,0,5.95-.85,8.55-1.42,10.27-.27,.82-.48,1.47-.48,2.17,0,.84,.31,1.73,.67,2.76,.55,1.56,1.23,3.51,1.23,6.31v33.1h0Z"/>
    <g>
      <path class="cls-3" d="M57.71,94.47c-.32,0-.77-.07-1.09-.18-.13-.04-.22-.09-.24-.09-.73-.67-1.31-.9-1.77-1.08l-.14-.05c-1.57-.52-3.14-.61-4.61-.63-1.1,0-2.05,.08-2.94,.24-.89,.22-2.28,.96-3.02,1.36l-.21,.11c-.43,.23-1.16,.3-1.39,.31h-.16c-.3,0-.46,0-.81-.16-.21-.12-.73-1.14-1.23-3.39l-.84,.19c.36,1.61,.95,3.61,1.69,3.97,.46,.22,.76,.25,1.06,.25h.3s1.08-.04,1.78-.41l.22-.12c.66-.35,2.04-1.09,2.8-1.28,.81-.15,1.72-.22,2.76-.22,1.61,.02,2.97,.13,4.33,.58l.12,.05c.44,.17,.89,.35,1.5,.91l.11,.08c.11,.07,.27,.14,.43,.19,.4,.15,.9,.23,1.36,.23s.92-.08,1.31-.23l-.3-.8c-.29,.11-.63,.17-.99,.17h0Z"/>
      <path class="cls-3" d="M63.11,43.31c0-.5,.18-1.03,.42-1.77,.56-1.69,1.48-4.51,1.48-10.67,0-8.34-7.39-15.07-8.86-16.32v-2.37h1.56v-1.28h-.64V3.27c0-1.15-.94-2.09-2.09-2.09h-9.98c-1.15,0-2.09,.94-2.09,2.09v7.61h-.64s0,1.28,0,1.28h1.56v2.37c-1.46,1.25-8.86,7.99-8.86,16.32,0,6.16,.93,8.98,1.48,10.67,.24,.74,.42,1.27,.42,1.77,0,.63-.26,1.38-.6,2.34-.55,1.57-1.3,3.72-1.3,6.73v33.1c0,3.15,1.26,11.28,4.38,12.71,2.86,1.31,6.05,.34,7.26-.87,.79-.8,6.1-.63,6.75,0,.8,.8,2.46,1.49,4.33,1.49,.95,0,1.96-.18,2.93-.62,3.12-1.43,4.38-9.56,4.38-12.71V52.37c0-3.01-.75-5.16-1.3-6.73-.33-.95-.6-1.71-.6-2.33h0ZM45.01,2.47h9.98c.44,0,.8,.36,.8,.8v5.02h-11.58V3.27c0-.44,.36-.8,.8-.8h0Zm-.8,6.68h11.58v1.74h-11.58v-1.74Zm19.52,76.33c0,3.88-1.56,10.59-3.63,11.54-2.38,1.09-5.01,.2-5.82-.61-1.13-1.13-7.22-1.35-8.57,0-.8,.8-3.44,1.7-5.82,.61-2.07-.95-3.63-7.65-3.63-11.54V52.37c0-2.8,.68-4.74,1.23-6.31,.36-1.03,.67-1.92,.67-2.76,0-.7-.21-1.35-.48-2.17-.56-1.72-1.41-4.32-1.41-10.27,0-8.44,8.53-15.46,8.62-15.52,.15-.12,.24-.31,.24-.5v-2.67h9.75v2.67c0,.19,.09,.38,.24,.5,.09,.07,8.62,7.09,8.62,15.52,0,5.95-.85,8.55-1.42,10.27-.27,.82-.48,1.47-.48,2.17,0,.84,.31,1.73,.67,2.76,.55,1.56,1.23,3.51,1.23,6.31v33.1h0Z"/>
      <path class="cls-3" d="M40.9,44.62h18.19v.86h-18.19v-.86Z"/>
    </g>
    <path class="cls-2" d="M45.01,2.47h9.98c.44,0,.8,.36,.8,.8v5.02h-11.58V3.27c0-.44,.36-.8,.8-.8h0Z"/>
    <rect class="cls-2" x="44.21" y="9.15" width="11.58" height="1.74"/>
  </g>
  <path class="cls-3" d="M71.15,11.48c-.72-1.47-1.54-2.92-2.38-4.33-.16-.25-.53-.25-.69,0-.85,1.41-1.63,2.85-2.38,4.33-.97,1.94-2.23,4.23-2.26,6.46,.06,2.73,2.23,4.99,4.99,4.99s4.92-2.29,4.99-4.99c-.03-2.23-1.29-4.52-2.26-6.46Zm-2.73,10.66c-2.32,0-4.14-1.91-4.2-4.2,.03-1,.38-2.01,.75-2.95,.44-1.19,1-2.32,1.57-3.45,.59-1.15,1.2-2.3,1.88-3.41,.66,1.11,1.3,2.26,1.89,3.41,.56,1.13,1.13,2.26,1.57,3.45,.34,.94,.72,1.94,.75,2.94,0,0,0,0,0,0-.06,2.29-1.88,4.2-4.2,4.2Z"/>
  <path class="cls-3" d="M79.4,8.82h0s0,0,0,0c0-.03,0-.06,0-.09-.06-1.47-.86-2.94-1.53-4.23-.5-1-1.03-1.94-1.63-2.88-.16-.25-.5-.25-.69,0-.6,.94-1.13,1.91-1.66,2.88-.69,1.32-1.5,2.82-1.54,4.33,0,.07,.02,.13,.05,.19,.15,1.83,1.62,3.33,3.5,3.33s3.39-1.54,3.5-3.4c0-.03,.01-.07,0-.11Zm-3.51,2.73c-1.54,0-2.7-1.25-2.73-2.73,0-.04-.01-.08-.02-.12,.07-1.44,.92-2.9,1.59-4.12,.37-.68,.73-1.35,1.13-2.01,.4,.66,.76,1.32,1.13,2.01,.66,1.25,1.57,2.79,1.6,4.23,0,.03,.01,.07,.02,.09-.11,1.43-1.25,2.63-2.72,2.63Z"/>
</svg>